v 20.864275 -0.10041995 2.5268509
v 20.860525 -0.099462323 2.527164
l 1 2
v 20.860525 -0.099462323 2.527164
v 20.821533 -0.089504063 2.5304189
l 3 4
v 20.80686 -0.084893748 2.5317965
v 20.821533 -0.089504063 2.5304189
l 5 6
v 20.821533 -0.089504063 2.5304189
v 20.818333 -0.088498786 2.5307193
l 7 8
v 20.818333 -0.088498786 2.5307193
v 20.80686 -0.084893748 2.5317965
l 9 10
v 20.723854 0.051920298 2.536773
v 20.702188 0.036705554 2.5384965
l 11 12
v 20.701017 0.035296377 2.538624
v 20.702188 0.036705554 2.5384965
l 13 14
v 20.687616 0.019165859 2.5400827
v 20.701017 0.035296377 2.538624
l 15 16
v 20.893751 0.10660678 2.5246277
v 20.908863 0.10976759 2.5235515
l 17 18
v 20.908863 0.10976759 2.5235515
v 20.913269 0.11068891 2.5232377
l 19 20
v 21.448652 -0.15830585 2.4990258
v 21.360802 -0.15528578 2.5020857
l 21 22
v 21.462719 -0.15878941 2.4985359
v 21.448652 -0.15830585 2.4990258
l 23 24
v 21.266705 0.15043771 2.505631
v 21.180557 0.14438218 2.5091448
l 25 26
v 21.180557 0.14438218 2.5091448
v 21.256538 0.14972316 2.5060456
l 27 28
v 21.256538 0.14972316 2.5060456
v 21.266705 0.15043771 2.505631
l 29 30
v 21.360802 0.15528578 2.5020857
v 21.266705 0.15043771 2.505631
l 31 32
v 21.266705 0.15043771 2.505631
v 21.348814 0.15466821 2.5025373
l 33 34
v 21.348814 0.15466821 2.5025373
v 21.360802 0.15528578 2.5020857
l 35 36
v 21.870001 0.70248783 1.7934426
v 21.879362 0.70314276 1.8061647
l 37 38
v 21.879362 0.70314276 1.8061647
v 21.875576 0.70287794 1.8010201
l 39 40
v 21.875576 0.70287794 1.8010201
v 21.870001 0.70248783 1.7934426
l 41 42
v 22.123869 -0.6772992 1.7086123
v 22.263519 -0.66744238 1.697896
l 43 44
v 22.221304 -0.68442607 1.8857093
v 22.123732 -0.68952835 1.8782271
l 45 46
v 22.123732 -0.68952835 1.8782271
v 22.161594 -0.68754834 1.8811307
l 47 48
v 22.161594 -0.68754834 1.8811307
v 22.221304 -0.68442607 1.8857093
l 49 50
v 22.068029 -0.15384397 2.4786661
v 22.041336 -0.15466161 2.4794793
l 51 52
v 22.041336 -0.15466161 2.4794793
v 21.937019 -0.15785667 2.4826572
l 53 54
v 21.937019 0.15785667 2.4826572
v 22.041336 0.15466161 2.4794793
l 55 56
v 22.041336 0.15466161 2.4794793
v 22.068029 0.15384397 2.4786661
l 57 58
v 22.123732 0.68952835 1.8782271
v 22.221304 0.68442607 1.8857093
l 59 60
v 22.161594 0.68754834 1.8811307
v 22.123732 0.68952835 1.8782271
l 61 62
v 22.221304 0.68442607 1.8857093
v 22.161594 0.68754834 1.8811307
l 63 64
v 22.696068 -0.65314811 1.8892196
v 22.839243 -0.64323777 1.883423
l 65 66
v 22.642183 -0.65694886 1.8914009
v 22.437819 -0.67166531 1.8936824
l 67 68
v 22.46809 -0.13448039 2.4629071
v 22.599262 -0.12620047 2.4569123
l 69 70
v 22.599262 -0.12620047 2.4569123
v 22.727335 -0.11734748 2.4511876
l 71 72
v 22.727335 -0.11734748 2.4511876
v 22.632961 -0.12387108 2.455406
l 73 74
v 22.632961 -0.12387108 2.455406
v 22.599262 -0.12620047 2.4569123
l 75 76
v 22.46809 0.13448039 2.4629071
v 22.335201 0.14197136 2.4691305
l 77 78
v 22.366947 0.14018184 2.4676437
v 22.46809 0.13448039 2.4629071
l 79 80
v 22.335201 0.14197136 2.4691305
v 22.366947 0.14018184 2.4676437
l 81 82
v 22.599262 0.12620047 2.4569123
v 22.46809 0.13448039 2.4629071
l 83 84
v 22.437819 0.67166531 1.8936824
v 22.642183 0.65694886 1.8914009
l 85 86
v 22.839243 0.64323777 1.883423
v 22.696068 0.65314811 1.8892196
l 87 88
v 22.849323 -0.1082072 2.442256
v 22.963903 -0.098976873 2.4291682
l 89 90
v 22.963903 -0.098976873 2.4291682
v 22.881008 -0.10565478 2.4386368
l 91 92
v 22.881008 -0.10565478 2.4386368
v 22.849323 -0.1082072 2.442256
l 93 94
v 23.329773 0.065891162 2.3770905
v 23.278822 0.070881292 2.3874815
l 95 96
v 23.535654 0.46778044 1.7552407
v 23.566856 0.4559831 1.7581843
l 97 98
v 23.566856 -0.4559831 1.7581843
v 23.535654 -0.46778044 1.7552407
l 99 100
v 23.666138 -0.42463863 1.8189687
v 23.660362 -0.4270488 1.8195481
l 101 102
v 23.667698 -0.029436905 2.2747629
v 23.673782 -0.028718892 2.2724366
l 103 104
v 23.711567 -0.024199506 2.2561052
v 23.740206 -0.020723155 2.2437425
l 105 106
v 23.740206 0.020723155 2.2437425
v 23.711567 0.024199506 2.2561052
l 107 108
v 23.840237 -0.0080146147 2.1913903
v 23.863039 -0.005005802 2.1781437
l 109 110
v 23.840237 0.0080146147 2.1913903
v 23.814318 0.011404365 2.2064493
l 111 112
v 3.2752812 6.441675e-17 -1.7576176
v 3.1104867 4.1288485e-17 -2.1353309
l 113 114
v 3.1104867 4.1288485e-17 -2.1353309
v 2.9431834 1.3357151e-17 -2.5148513
l 115 116
v 3.2752812 6.441675e-17 -1.7576176
v 3.4400759 8.7545011e-17 -1.3799044
l 117 118
v 3.4400759 8.7545011e-17 -1.3799044
v 3.5314224 1.0036514e-16 -1.1705358
l 119 120
v 2.7683523 -0.054913152 -2.6734276
v 2.7549884 -0.060825296 -2.6712828
l 121 122
v 2.7549884 -0.060825296 -2.6712828
v 2.7576907 -0.059629809 -2.6717165
l 123 124
v 2.7576907 -0.059629809 -2.6717165
v 2.7683523 -0.054913152 -2.6734276
l 125 126
v 2.747874 -0.063943699 -2.6702943
v 2.7300169 -0.07228639 -2.6679282
l 127 128
v 2.7367525 -0.06913957 -2.6688206
v 2.747874 -0.063943699 -2.6702943
l 129 130
v 2.7300169 -0.07228639 -2.6679282
v 2.7367525 -0.06913957 -2.6688206
l 131 132
v 2.7300169 0.07228639 -2.6679282
v 2.747874 0.063943699 -2.6702943
l 133 134
v 2.7367525 0.06913957 -2.6688206
v 2.7300169 0.07228639 -2.6679282
l 135 136
v 2.747874 0.063943699 -2.6702943
v 2.7367525 0.06913957 -2.6688206
l 137 138
v 3.054805 -0.010468468 -3.3057225
v 3.0547664 -0.016522918 -3.3052921
l 139 140
v 3.0548329 0.0060868445 -3.3060338
v 3.0548718 0 -3.3064663
l 141 142
v 3.0547664 0.016522918 -3.3052921
v 3.054805 0.010468468 -3.3057225
l 143 144
v 3.0544498 0.048694756 -3.3017654
v 3.0545678 0.042607911 -3.3030806
l 145 146
v 3.0543318 0.054781601 -3.3004503
v 3.0544498 0.048694756 -3.3017654
l 147 148
v 3.0160978 0.17863144 -3.2576625
v 3.0115416 0.18562882 -3.2544725
l 149 150
v 3.0200713 0.17252898 -3.2604444
v 3.0160978 0.17863144 -3.2576625
l 151 152
v 3.0545678 -0.042607911 -3.3030806
v 3.0544498 -0.048694756 -3.3017654
l 153 154
v 3.0544498 -0.048694756 -3.3017654
v 3.0543318 -0.054781601 -3.3004503
l 155 156
v 3.0447578 -0.11610239 -3.2846661
v 3.0480862 -0.10431417 -3.2878196
l 157 158
v 3.050257 -0.092658095 -3.2913899
v 3.0526197 -0.079608105 -3.2954144
l 159 160
v 3.0482545 -0.10371755 -3.2879791
v 3.050257 -0.092658095 -3.2913899
l 161 162
v 2.9638731 -0.23295125 -3.2313046
v 2.9603438 -0.23567301 -3.2297802
l 163 164
v 2.9603438 -0.23567301 -3.2297802
v 2.9620423 -0.23436317 -3.2305138
l 165 166
v 2.9620423 -0.23436317 -3.2305138
v 2.9638731 -0.23295125 -3.2313046
l 167 168
v 3.0006161 -0.19838801 -3.2481635
v 2.9925604 -0.20714426 -3.2435803
l 169 170
v 2.9925604 -0.20714426 -3.2435803
v 2.9938517 -0.20574073 -3.2443149
l 171 172
v 2.9938517 -0.20574073 -3.2443149
v 3.0006161 -0.19838801 -3.2481635
l 173 174
v 2.9088292 0.26760638 -3.2164748
v 2.9074228 0.26814932 -3.2165298
l 175 176
v 2.9089203 0.26757118 -3.2164712
v 2.9088292 0.26760638 -3.2164748
l 177 178
v 2.8943186 -0.27276051 -3.2175684
v 2.8853011 -0.27539766 -3.2188456
l 179 180
v 2.7967677 0.25648445 -3.2832913
v 2.8058035 0.26437595 -3.2719204
l 181 182
v 2.8014331 0.26055902 -3.2774203
v 2.7967677 0.25648445 -3.2832913
l 183 184
v 2.8058035 0.26437595 -3.2719204
v 2.8014331 0.26055902 -3.2774203
l 185 186
v 2.760401 0.19240263 -3.3473361
v 2.7603338 0.19108605 -3.3480859
l 187 188
v 2.7596979 0.17976871 -3.3545482
v 2.7596998 0.1797871 -3.3545375
l 189 190
v 2.7596998 0.1797871 -3.3545375
v 2.7597284 0.18006723 -3.3543737
l 191 192
v 2.7603338 0.19108605 -3.3480859
v 2.7602665 0.18976949 -3.3488357
l 193 194
v 2.7602665 0.18976949 -3.3488357
v 2.7601466 0.18742393 -3.3501716
l 195 196
v 2.7601466 0.18742393 -3.3501716
v 2.7600775 0.18607099 -3.3509421
l 197 198
v 2.7600646 0.18581977 -3.3510852
v 2.7599971 0.1845032 -3.351835
l 199 200
v 2.7600083 0.18471806 -3.3517127
v 2.7600646 0.18581977 -3.3510852
l 201 202
v 2.7599971 0.1845032 -3.351835
v 2.7600083 0.18471806 -3.3517127
l 203 204
v 2.7600646 0.18581977 -3.3510852
v 2.7600775 0.18607099 -3.3509421
l 205 206
v 2.7598059 0.18096617 -3.3538525
v 2.7598078 0.18099232 -3.3538375
l 207 208
v 2.7598078 0.18099232 -3.3538375
v 2.7598271 0.18126692 -3.3536797
l 209 210
v 2.7600646 0.18581977 -3.3510852
v 2.759939 0.18336511 -3.3524833
l 211 212
v 2.7599299 0.18318662 -3.3525848
v 2.7598627 0.18187004 -3.3533349
l 213 214
v 2.7596302 -0.17917345 -3.354898
v 2.7596653 -0.17947079 -3.354723
l 215 216
v 2.7596672 -0.17948723 -3.3547132
v 2.7596998 -0.1797871 -3.3545375
l 217 218
v 2.7596998 -0.1797871 -3.3545375
v 2.7596979 -0.17976871 -3.3545482
l 219 220
v 2.7596979 -0.17976871 -3.3545482
v 2.7596672 -0.17948723 -3.3547132
l 221 222
v 2.760401 -0.19240263 -3.3473361
v 2.7604682 -0.19371921 -3.3465862
l 223 224
v 2.7604232 -0.1928357 -3.3470893
v 2.760401 -0.19240263 -3.3473361
l 225 226
v 2.7604682 -0.19371921 -3.3465862
v 2.7604232 -0.1928357 -3.3470893
l 227 228
v 2.7603338 -0.19108605 -3.3480859
v 2.760401 -0.19240263 -3.3473361
l 229 230
v 2.7602158 -0.18877688 -3.349401
v 2.7603338 -0.19108605 -3.3480859
l 231 232
v 2.7602665 -0.18976949 -3.3488357
v 2.7602158 -0.18877688 -3.349401
l 233 234
v 2.7601466 -0.18742393 -3.3501716
v 2.7603338 -0.19108605 -3.3480859
l 235 236
v 2.7600775 -0.18607099 -3.3509421
v 2.7601466 -0.18742393 -3.3501716
l 237 238
v 2.7600775 -0.18607099 -3.3509421
v 2.7600646 -0.18581977 -3.3510852
l 239 240
v 2.759846 -0.18156822 -3.353507
v 2.7598627 -0.18187004 -3.3533349
l 241 242
v 2.7598476 -0.18159825 -3.3534899
v 2.759846 -0.18156822 -3.353507
l 243 244
v 2.7598627 -0.18187004 -3.3533349
v 2.7598476 -0.18159825 -3.3534899
l 245 246
v 2.7598698 -0.18201216 -3.3532538
v 2.759939 -0.18336511 -3.3524833
l 247 248
v 2.759939 -0.18336511 -3.3524833
v 2.7599299 -0.18318662 -3.3525848
l 249 250
v 2.7599299 -0.18318662 -3.3525848
v 2.7598698 -0.18201216 -3.3532538
l 251 252
v 2.6323986 -0.19371921 -3.3704557
v 2.6295722 -0.19371921 -3.3705709
l 253 254
v 2.6549935 -0.19371921 -3.3689349
v 2.6459937 -0.19371921 -3.3699007
l 255 256
v 2.6459937 0.19371921 -3.3699007
v 2.6549935 0.19371921 -3.3689349
l 257 258
v 2.5713849 0.19371921 -3.3704588
v 2.5812666 0.19371921 -3.3705029
l 259 260
v 2.6101718 0.19371921 -3.3705473
v 2.6174223 0.19371921 -3.3705561
l 261 262
v 2.4599974 0.17917345 -3.3774662
v 2.4599319 0.17947079 -3.3773003
l 263 264
v 2.4599319 0.17947079 -3.3773003
v 2.4598684 0.17976871 -3.3771341
l 265 266
v 2.4579859 0.19168927 -3.3704934
v 2.4576752 0.19371921 -3.3693628
l 267 268
v 2.4581933 0.19033487 -3.3712478
v 2.4582798 0.18976949 -3.3715627
l 269 270
v 2.4582798 0.18976949 -3.3715627
v 2.4584007 0.18898048 -3.3720021
l 271 272
v 2.458683 0.18713634 -3.3730295
v 2.4584813 0.18845291 -3.3722961
l 273 274
v 2.4586079 0.18762608 -3.3727565
v 2.458683 0.18713634 -3.3730295
l 275 276
v 2.4584813 0.18845291 -3.3722961
v 2.4586079 0.18762608 -3.3727565
l 277 278
v 2.4588153 0.18627168 -3.3735111
v 2.4584813 0.18845291 -3.3722961
l 279 280
v 2.4590859 0.1845032 -3.374496
v 2.4592299 0.18356289 -3.3750198
l 281 282
v 2.4592299 0.18356289 -3.3750198
v 2.4592876 0.18318662 -3.3752294
l 283 284
v 2.4588153 0.18627168 -3.3735111
v 2.4579859 0.19168927 -3.3704934
l 285 286
v 2.4597487 0.18036631 -3.3768008
v 2.4596922 0.18066595 -3.3766336
l 287 288
v 2.4595861 0.18126692 -3.3762987
v 2.4595363 0.18156822 -3.3761308
l 289 290
v 2.4595363 0.18156822 -3.3761308
v 2.4595742 0.1813388 -3.3762586
l 291 292
v 2.4595742 0.1813388 -3.3762586
v 2.4595861 0.18126692 -3.3762987
l 293 294
v 2.3218062 0.27792609 -3.2978776
v 2.334044 0.27947441 -3.297138
l 295 296
v 2.4598684 -0.17976871 -3.3771341
v 2.4599319 -0.17947079 -3.3773003
l 297 298
v 2.4579859 -0.19168927 -3.3704934
v 2.4581933 -0.19033487 -3.3712478
l 299 300
v 2.4579859 -0.19168927 -3.3704934
v 2.4578767 -0.19240263 -3.370096
l 301 302
v 2.4584007 -0.18898048 -3.3720021
v 2.4582798 -0.18976949 -3.3715627
l 303 304
v 2.4582798 -0.18976949 -3.3715627
v 2.4581933 -0.19033487 -3.3712478
l 305 306
v 2.4581933 -0.19033487 -3.3712478
v 2.4584813 -0.18845291 -3.3722961
l 307 308
v 2.4586079 -0.18762608 -3.3727565
v 2.4584813 -0.18845291 -3.3722961
l 309 310
v 2.4801853 -0.19371921 -3.3696933
v 2.4698224 -0.19371921 -3.3695412
l 311 312
v 2.5331848 -0.19371921 -3.3702598
v 2.5124691 -0.19371921 -3.3700752
l 313 314
v 2.4361701 -0.23032929 -3.3446829
v 2.4244118 -0.24438171 -3.3337953
l 315 316
v 2.4244118 -0.24438171 -3.3337953
v 2.4317861 -0.23556887 -3.3406234
l 317 318
v 2.4317861 -0.23556887 -3.3406234
v 2.4361701 -0.23032929 -3.3446829
l 319 320
v 2.4091947 -0.2581031 -3.3219116
v 2.3976498 -0.26636758 -3.3132093
l 321 322
v 2.3976498 -0.26636758 -3.3132093
v 2.4090617 -0.25819835 -3.3218112
l 323 324
v 2.4090617 -0.25819835 -3.3218112
v 2.4091947 -0.2581031 -3.3219116
l 325 326
v 2.286747 -0.26757118 -3.3056998
v 2.2932701 -0.27007601 -3.3037417
l 327 328
v 2.2932701 -0.27007601 -3.3037417
v 2.2981031 -0.27193183 -3.3022909
l 329 330
v 2.2545512 -0.24907552 -3.3213258
v 2.2457473 -0.2420339 -3.3258269
l 331 332
v 2.1757481 -0.13575496 -3.3809319
v 2.1727934 -0.12698647 -3.3839312
l 333 334
v 2.1636138 0.030836402 -3.4038734
v 2.163573 0.036957439 -3.4034193
l 335 336
v 2.1635759 0.036521066 -3.4034514
v 2.1636138 0.030836402 -3.4038734
l 337 338
v 2.163573 0.036957439 -3.4034193
v 2.1635759 0.036521066 -3.4034514
l 339 340
v 2.1636546 0.02471536 -3.4043274
v 2.1636138 0.030836402 -3.4038734
l 341 342
v 2.1636138 0.030836402 -3.4038734
v 2.1636164 0.030434223 -3.4039032
l 343 344
v 2.1636164 0.030434223 -3.4039032
v 2.1636546 0.02471536 -3.4043274
l 345 346
v 2.1636569 0.024347378 -3.4043548
v 2.1636138 0.030836402 -3.4038734
l 347 348
v 2.1636569 0.024347378 -3.4043548
v 2.1634948 0.048694756 -3.4025483
l 349 350
v 2.1637361 0.012473281 -3.4052358
v 2.1636569 0.024347378 -3.4043548
l 351 352
v 2.1637769 -0.0063522402 -3.40569
v 2.1638176 -0.00023119984 -3.4061441
l 353 354
v 2.1637361 -0.012473281 -3.4052358
v 2.1637769 -0.0063522402 -3.40569
l 355 356
v 2.1636164 -0.030434223 -3.4039032
v 2.1636569 -0.024347378 -3.4043548
l 357 358
v 2.1636569 -0.024347378 -3.4043548
v 2.1637361 -0.012473281 -3.4052358
l 359 360
v 2.1727934 0.12698647 -3.3839312
v 2.1757481 0.13575496 -3.3809319
l 361 362
v 2.3744199 -0.27582404 -3.3028724
v 2.364918 -0.2783953 -3.299818
l 363 364
v 2.364918 -0.2783953 -3.299818
v 2.3717692 -0.27654135 -3.3020203
l 365 366
v 2.3717692 -0.27654135 -3.3020203
v 2.3744199 -0.27582404 -3.3028724
l 367 368
v 10.192677 -1.0022357 -0.66231573
v 10.192677 -0.97184181 -0.66497487
l 369 370
v 10.192677 -2.0060272 -0.57449538
v 10.192677 -1.5040827 -0.61840981
l 371 372
v 10.192677 -1.5040827 -0.61840981
v 10.192677 -1.0022357 -0.66231573
l 373 374
v 10.192677 -3.0090415 -0.48674297
v 10.192677 -2.5077772 -0.53059793
l 375 376
v 10.192677 -2.5077772 -0.53059793
v 10.192677 -2.0060272 -0.57449538
l 377 378
v 9.0924339 -13.768394 0.42097065
v 9.0383968 -13.768565 0.4152047
l 379 380
v 9.0383968 -13.768565 0.4152047
v 8.978898 -13.768753 0.40887055
l 381 382
v 8.9659882 -13.850944 0.54379302
v 8.8989763 -13.862748 0.5558337
l 383 384
v 8.8259583 -13.875314 0.56847227
v 8.8989763 -13.862748 0.5558337
l 385 386
v 9.0271845 -13.839938 0.53242338
v 9.0828114 -13.829749 0.52177316
l 387 388
v 9.0828114 -13.829749 0.52177316
v 9.1331224 -13.820376 0.51188642
l 389 390
v 9.0924339 -13.768394 0.42097065
v 9.1412954 -13.768239 0.42619696
l 391 392
v 9.1853018 -13.7681 0.43091553
v 9.1412954 -13.768239 0.42619696
l 393 394
v 9.2247934 -13.767975 0.4351604
v 9.1853018 -13.7681 0.43091553
l 395 396
v 9.1784449 -13.811804 0.50277138
v 9.1331224 -13.820376 0.51188642
l 397 398
v 9.219141 -13.804002 0.49441174
v 9.1784449 -13.811804 0.50277138
l 399 400
v 9.2555752 -13.796931 0.48678303
v 9.219141 -13.804002 0.49441174
l 401 402
v 9.2555752 -13.796931 0.48678303
v 9.2880783 -13.790555 0.47986633
l 403 404
v 9.2916317 -13.767764 0.44236922
v 9.3196669 -13.767675 0.44540295
l 405 406
v 9.344553 -13.767596 0.44810119
v 9.3196669 -13.767675 0.44540295
l 407 408
v 9.2916317 -13.767764 0.44236922
v 9.2601213 -13.767863 0.43896657
l 409 410
v 9.2601213 -13.767863 0.43896657
v 9.2247934 -13.767975 0.4351604
l 411 412
v 9.3665991 -13.767527 0.45049584
v 9.344553 -13.767596 0.44810119
l 413 414
v 9.3860941 -13.767466 0.4526169
v 9.3665991 -13.767527 0.45049584
l 415 416
v 9.3426762 -13.779694 0.46801031
v 9.3170004 -13.784824 0.47362313
l 417 418
v 9.2880783 -13.790555 0.47986633
v 9.3170004 -13.784824 0.47362313
l 419 420
v 9.3426762 -13.779694 0.46801031
v 9.3654242 -13.775113 0.462982
l 421 422
v 9.3654242 -13.775113 0.462982
v 9.3855419 -13.771034 0.45849147
l 423 424
v 9.4033051 -13.76741 0.45449236
v 9.3855419 -13.771034 0.45849147
l 425 426
v 9.3860941 -13.767466 0.4526169
v 9.4033051 -13.76741 0.45449236
l 427 428
v 9.4033051 -13.76741 0.45449236
v 9.4596891 -13.316277 0.41502327
l 429 430
v 9.4596891 -13.316277 0.41502327
v 9.5160723 -12.865143 0.37555417
l 431 432
v 9.5160723 -12.865143 0.37555417
v 9.5724564 -12.414009 0.33608505
l 433 434
v 9.5724564 -12.414009 0.33608505
v 9.6288404 -11.962875 0.29661596
l 435 436
v 9.6288404 -11.962875 0.29661596
v 9.6852236 -11.511742 0.25714687
l 437 438
v 9.7416077 -11.060607 0.21767776
v 9.7979918 -10.609473 0.17820866
l 439 440
v 9.7416077 -11.060607 0.21767776
v 9.6852236 -11.511742 0.25714687
l 441 442
v 10.192677 -3.0090415 -0.48674297
v 10.192677 -3.5095294 -0.44295597
l 443 444
v 10.192677 -3.5095294 -0.44295597
v 10.192677 -4.0089526 -0.3992621
l 445 446
v 10.192677 -4.0089526 -0.3992621
v 10.192677 -4.5070243 -0.35568646
l 447 448
v 10.192677 -4.5070243 -0.35568646
v 10.192677 -5.0034628 -0.31225374
l 449 450
v 10.192677 -5.0034628 -0.31225374
v 10.192677 -5.4979877 -0.2689884
l 451 452
v 10.192677 -5.4979877 -0.2689884
v 10.192677 -5.9903245 -0.22591451
l 453 454
v 10.192677 -5.9903245 -0.22591451
v 10.192677 -6.4802036 -0.18305564
l 455 456
v 10.192677 -6.4802036 -0.18305564
v 10.192677 -6.9673605 -0.14043497
l 457 458
v 10.192677 -6.9673605 -0.14043497
v 10.192677 -7.4515362 -0.098075047
l 459 460
v 10.192677 -7.4515362 -0.098075047
v 10.136294 -7.9026704 -0.058605943
l 461 462
v 10.136294 -7.9026704 -0.058605943
v 10.07991 -8.3538036 -0.019136842
l 463 464
v 10.07991 -8.3538036 -0.019136842
v 10.023526 -8.8049383 0.020332258
l 465 466
v 10.023526 -8.8049383 0.020332258
v 9.9671431 -9.256072 0.059801359
l 467 468
v 9.9671431 -9.256072 0.059801359
v 9.910759 -9.7072058 0.099270456
l 469 470
v 9.910759 -9.7072058 0.099270456
v 9.8543749 -10.15834 0.13873956
l 471 472
v 9.8543749 -10.15834 0.13873956
v 9.7979918 -10.609473 0.17820866
l 473 474
v 8.746911 -13.888568 0.58157349
v 8.8259583 -13.875314 0.56847227
l 475 476
v 8.746911 -13.888568 0.58157349
v 8.6618357 -13.902421 0.59500724
l 477 478
v 8.5708981 -13.916751 0.60859746
v 8.6618357 -13.902421 0.59500724
l 479 480
v 8.6826859 -13.76969 0.37757638
v 8.765625 -13.769427 0.38629434
l 481 482
v 8.6826859 -13.76969 0.37757638
v 8.5939617 -13.769971 0.36829418
l 483 484
v 8.5939617 -13.769971 0.36829418
v 8.4997282 -13.770268 0.35849801
l 485 486
v 8.4744148 -13.931398 0.62212771
v 8.3728085 -13.94617 0.63536519
l 487 488
v 8.2666941 -13.960846 0.64804631
v 8.3728085 -13.94617 0.63536519
l 489 490
v 8.4744148 -13.931398 0.62212771
v 8.5708981 -13.916751 0.60859746
l 491 492
v 8.0439548 -13.988895 0.67064172
v 8.1567879 -13.975179 0.65990072
l 493 494
v 8.1567879 -13.975179 0.65990072
v 8.2666941 -13.960846 0.64804631
l 495 496
v 8.1888647 -13.771252 0.32689574
v 8.2965488 -13.770911 0.33768713
l 497 498
v 8.0781746 -13.771602 0.31604093
v 8.1888647 -13.771252 0.32689574
l 499 500
v 8.0439548 -13.988895 0.67064172
v 7.9291673 -14.001711 0.67999303
l 501 502
v 8.0781746 -13.771602 0.31604093
v 7.965404 -13.771958 0.30530474
l 503 504
v 7.965404 -13.771958 0.30530474
v 7.8515506 -13.772318 0.29487556
l 505 506
v 7.7376518 -13.772678 0.28495795
v 7.8515506 -13.772318 0.29487556
l 507 508
v 7.6247449 -13.773035 0.27575734
v 7.7376518 -13.772678 0.28495795
l 509 510
v 6.9349709 -13.775215 0.23532104
v 6.8575425 -13.775459 0.23402205
l 511 512
v 6.7860823 -13.775685 0.23399003
v 6.8575425 -13.775459 0.23402205
l 513 514
v 6.8909578 -14.03295 0.65339625
v 6.8144312 -14.024923 0.63852006
l 515 516
v 6.7441983 -14.01521 0.62222916
v 6.8144312 -14.024923 0.63852006
l 517 518
v 6.8909578 -14.03295 0.65339625
v 6.9737487 -14.039136 0.66659808
l 519 520
v 7.0626516 -14.043329 0.67785072
v 7.1573758 -14.045411 0.68689513
l 521 522
v 7.257483 -14.045309 0.69350404
v 7.1573758 -14.045411 0.68689513
l 523 524
v 7.257483 -14.045309 0.69350404
v 7.36238 -14.043006 0.69750178
l 525 526
v 7.2020664 -13.774371 0.24665084
v 7.301734 -13.774056 0.25269324
l 527 528
v 7.301734 -13.774056 0.25269324
v 7.4058919 -13.773726 0.25966844
l 529 530
v 7.4713321 -14.038539 0.6987617
v 7.36238 -14.043006 0.69750178
l 531 532
v 7.4058919 -13.773726 0.25966844
v 7.5138388 -13.773386 0.26739645
l 533 534
v 7.5138388 -13.773386 0.26739645
v 7.6247449 -13.773035 0.27575734
l 535 536
v 7.6978502 -14.023521 0.69352722
v 7.5834751 -14.031998 0.69729608
l 537 538
v 7.4713321 -14.038539 0.6987617
v 7.5834751 -14.031998 0.69729608
l 539 540
v 7.6978502 -14.023521 0.69352722
v 7.8134317 -14.013344 0.68769944
l 541 542
v 6.6801782 -14.003999 0.60479152
v 6.7441983 -14.01521 0.62222916
l 543 544
v 6.6222091 -13.991445 0.58642828
v 6.6801782 -14.003999 0.60479152
l 545 546
v 6.6065173 -13.776251 0.24113533
v 6.6607447 -13.77608 0.23758979
l 547 548
v 6.6222091 -13.991445 0.58642828
v 6.5700665 -13.977706 0.56733888
l 549 550
v 6.5575995 -13.776405 0.24578758
v 6.6065173 -13.776251 0.24113533
l 551 552
v 6.5137148 -13.776544 0.25151351
v 6.5575995 -13.776405 0.24578758
l 553 554
v 6.7205305 -13.775891 0.23519109
v 6.6607447 -13.77608 0.23758979
l 555 556
v 6.7860823 -13.775685 0.23399003
v 6.7205305 -13.775891 0.23519109
l 557 558
v 8.400403 -13.770582 0.34826317
v 8.2965488 -13.770911 0.33768713
l 559 560
v 8.4997282 -13.770268 0.35849801
v 8.400403 -13.770582 0.34826317
l 561 562
v 7.2122383 -2.3024359 -0.78283119
v 7.210001 -2.2874584 -0.78398925
l 563 564
v 7.2113686 -2.2966139 -0.78328133
v 7.2122383 -2.3024359 -0.78283119
l 565 566
v 7.210001 -2.2874584 -0.78398925
v 7.2113686 -2.2966139 -0.78328133
l 567 568
v 7.3621678 -2.1600158 -0.79287565
v 7.3427486 -2.1614635 -0.79302794
l 569 570
v 7.3427486 -2.1614635 -0.79302794
v 7.3068032 -2.1641433 -0.79330981
l 571 572
v 7.2859864 -2.172323 -0.79295683
v 7.3068032 -2.1641433 -0.79330981
l 573 574
v 7.2509561 -2.3622882 -0.77816927
v 7.2626362 -2.3724091 -0.77737719
l 575 576
v 7.2338786 -2.3474901 -0.77932733
v 7.2509561 -2.3622882 -0.77816927
l 577 578
v 8.842638 -13.769184 0.39442164
v 8.765625 -13.769427 0.38629434
l 579 580
v 8.9137011 -13.768959 0.40194672
v 8.842638 -13.769184 0.39442164
l 581 582
v 8.9137011 -13.768959 0.40194672
v 8.978898 -13.768753 0.40887055
l 583 584
v 6.5234823 -13.962895 0.54766864
v 6.5700665 -13.977706 0.56733888
l 585 586
v 6.4458423 -13.930349 0.50693178
v 6.4821706 -13.947102 0.52752268
l 587 588
v 6.4821706 -13.947102 0.52752268
v 6.5234823 -13.962895 0.54766864
l 589 590
v 6.4399405 -13.776775 0.26618537
v 6.4745822 -13.776667 0.25830284
l 591 592
v 6.4095721 -13.776871 0.27523735
v 6.4399405 -13.776775 0.26618537
l 593 594
v 6.3871965 -13.893785 0.46427375
v 6.4142499 -13.912617 0.48588654
l 595 596
v 6.4142499 -13.912617 0.48588654
v 6.4458423 -13.930349 0.50693178
l 597 598
v 6.3833666 -13.776953 0.2856203
v 6.4095721 -13.776871 0.27523735
l 599 600
v 6.3833666 -13.776953 0.2856203
v 6.3613954 -13.777021 0.29757074
l 601 602
v 6.3440948 -13.777076 0.31137842
v 6.3613954 -13.777021 0.29757074
l 603 604
v 6.3466597 -13.851851 0.41848302
v 6.3646154 -13.873635 0.44189581
l 605 606
v 6.3646154 -13.873635 0.44189581
v 6.3871965 -13.893785 0.46427375
l 607 608
v 6.3466597 -13.851851 0.41848302
v 6.3338623 -13.828094 0.39378455
l 609 610
v 6.3338623 -13.828094 0.39378455
v 6.3271823 -13.802576 0.36814269
l 611 612
v 6.4745822 -13.776667 0.25830284
v 6.5137148 -13.776544 0.25151351
l 613 614
v 7.8134317 -14.013344 0.68769944
v 7.9291673 -14.001711 0.67999303
l 615 616
v 7.1074557 -13.77467 0.24167891
v 7.0183277 -13.774952 0.23788312
l 617 618
v 6.9349709 -13.775215 0.23532104
v 7.0183277 -13.774952 0.23788312
l 619 620
v 7.0626516 -14.043329 0.67785072
v 6.9737487 -14.039136 0.66659808
l 621 622
v 7.1074557 -13.77467 0.24167891
v 7.2020664 -13.774371 0.24665084
l 623 624
v 8.9659882 -13.850944 0.54379302
v 9.0271845 -13.839938 0.53242338
l 625 626
v 10.192677 0.96266973 -0.66577727
v 10.192677 1.0022357 -0.66231573
l 627 628
v 10.192677 1.5040827 -0.61840981
v 10.192677 1.0022357 -0.66231573
l 629 630
v 10.192677 2.0060272 -0.57449538
v 10.192677 1.5040827 -0.61840981
l 631 632
v 10.192677 2.5077772 -0.53059793
v 10.192677 2.0060272 -0.57449538
l 633 634
v 10.192677 3.0090415 -0.48674297
v 10.192677 2.5077772 -0.53059793
l 635 636
v 10.192677 3.5095294 -0.44295597
v 10.192677 3.0090415 -0.48674297
l 637 638
v 10.192677 4.0089526 -0.3992621
v 10.192677 3.5095294 -0.44295597
l 639 640
v 10.192677 4.5070243 -0.35568646
v 10.192677 4.0089526 -0.3992621
l 641 642
v 10.192677 5.0034628 -0.31225374
v 10.192677 4.5070243 -0.35568646
l 643 644
v 10.192677 5.4979877 -0.2689884
v 10.192677 5.0034628 -0.31225374
l 645 646
v 10.192677 5.9903245 -0.22591451
v 10.192677 5.4979877 -0.2689884
l 647 648
v 10.192677 6.4802036 -0.18305564
v 10.192677 5.9903245 -0.22591451
l 649 650
v 10.192677 6.9673605 -0.14043497
v 10.192677 6.4802036 -0.18305564
l 651 652
v 10.192677 7.4515362 -0.098075047
v 10.192677 6.9673605 -0.14043497
l 653 654
v 10.136294 7.9026704 -0.058605943
v 10.192677 7.4515362 -0.098075047
l 655 656
v 10.07991 8.3538036 -0.019136842
v 10.136294 7.9026704 -0.058605943
l 657 658
v 10.023526 8.8049383 0.020332258
v 10.07991 8.3538036 -0.019136842
l 659 660
v 9.9671431 9.256072 0.059801359
v 10.023526 8.8049383 0.020332258
l 661 662
v 9.910759 9.7072058 0.099270456
v 9.9671431 9.256072 0.059801359
l 663 664
v 9.8543749 10.15834 0.13873956
v 9.910759 9.7072058 0.099270456
l 665 666
v 9.7979918 10.609473 0.17820866
v 9.8543749 10.15834 0.13873956
l 667 668
v 9.7979918 10.609473 0.17820866
v 9.7416077 11.060607 0.21767776
l 669 670
v 9.7416077 11.060607 0.21767776
v 9.6852236 11.511742 0.25714687
l 671 672
v 9.6852236 11.511742 0.25714687
v 9.6288404 11.962875 0.29661596
l 673 674
v 9.2916317 13.767764 0.44236922
v 9.3196669 13.767675 0.44540295
l 675 676
v 9.2601213 13.767863 0.43896657
v 9.2916317 13.767764 0.44236922
l 677 678
v 9.219141 13.804002 0.49441174
v 9.2555752 13.796931 0.48678303
l 679 680
v 9.219141 13.804002 0.49441174
v 9.1784449 13.811804 0.50277138
l 681 682
v 9.2880783 13.790555 0.47986633
v 9.2555752 13.796931 0.48678303
l 683 684
v 9.3170004 13.784824 0.47362313
v 9.2880783 13.790555 0.47986633
l 685 686
v 9.3170004 13.784824 0.47362313
v 9.3426762 13.779694 0.46801031
l 687 688
v 9.3654242 13.775113 0.462982
v 9.3426762 13.779694 0.46801031
l 689 690
v 9.3860941 13.767466 0.4526169
v 9.3665991 13.767527 0.45049584
l 691 692
v 9.4033051 13.76741 0.45449236
v 9.3860941 13.767466 0.4526169
l 693 694
v 9.3654242 13.775113 0.462982
v 9.3855419 13.771034 0.45849147
l 695 696
v 9.3855419 13.771034 0.45849147
v 9.4033051 13.76741 0.45449236
l 697 698
v 9.4033051 13.76741 0.45449236
v 9.4596891 13.316277 0.41502327
l 699 700
v 9.5160723 12.865143 0.37555417
v 9.4596891 13.316277 0.41502327
l 701 702
v 9.5160723 12.865143 0.37555417
v 9.5724564 12.414009 0.33608505
l 703 704
v 9.344553 13.767596 0.44810119
v 9.3665991 13.767527 0.45049584
l 705 706
v 9.3196669 13.767675 0.44540295
v 9.344553 13.767596 0.44810119
l 707 708
v 9.5724564 12.414009 0.33608505
v 9.6288404 11.962875 0.29661596
l 709 710
v 9.1784449 13.811804 0.50277138
v 9.1331224 13.820376 0.51188642
l 711 712
v 9.1331224 13.820376 0.51188642
v 9.0828114 13.829749 0.52177316
l 713 714
v 9.1853018 13.7681 0.43091553
v 9.1412954 13.768239 0.42619696
l 715 716
v 9.0924339 13.768394 0.42097065
v 9.1412954 13.768239 0.42619696
l 717 718
v 9.0383968 13.768565 0.4152047
v 9.0924339 13.768394 0.42097065
l 719 720
v 8.9659882 13.850944 0.54379302
v 9.0271845 13.839938 0.53242338
l 721 722
v 8.9659882 13.850944 0.54379302
v 8.8989763 13.862748 0.5558337
l 723 724
v 8.8989763 13.862748 0.5558337
v 8.8259583 13.875314 0.56847227
l 725 726
v 8.8259583 13.875314 0.56847227
v 8.746911 13.888568 0.58157349
l 727 728
v 8.746911 13.888568 0.58157349
v 8.6618357 13.902421 0.59500724
l 729 730
v 8.842638 13.769184 0.39442164
v 8.765625 13.769427 0.38629434
l 731 732
v 8.6826859 13.76969 0.37757638
v 8.765625 13.769427 0.38629434
l 733 734
v 8.5939617 13.769971 0.36829418
v 8.6826859 13.76969 0.37757638
l 735 736
v 8.4744148 13.931398 0.62212771
v 8.5708981 13.916751 0.60859746
l 737 738
v 8.4744148 13.931398 0.62212771
v 8.3728085 13.94617 0.63536519
l 739 740
v 8.2666941 13.960846 0.64804631
v 8.3728085 13.94617 0.63536519
l 741 742
v 8.2666941 13.960846 0.64804631
v 8.1567879 13.975179 0.65990072
l 743 744
v 8.1567879 13.975179 0.65990072
v 8.0439548 13.988895 0.67064172
l 745 746
v 8.0439548 13.988895 0.67064172
v 7.9291673 14.001711 0.67999303
l 747 748
v 7.9291673 14.001711 0.67999303
v 7.8134317 14.013344 0.68769944
l 749 750
v 8.0781746 13.771602 0.31604093
v 7.965404 13.771958 0.30530474
l 751 752
v 7.8515506 13.772318 0.29487556
v 7.965404 13.771958 0.30530474
l 753 754
v 7.8515506 13.772318 0.29487556
v 7.7376518 13.772678 0.28495795
l 755 756
v 7.6247449 13.773035 0.27575734
v 7.7376518 13.772678 0.28495795
l 757 758
v 6.9349709 13.775215 0.23532104
v 7.0183277 13.774952 0.23788312
l 759 760
v 6.8575425 13.775459 0.23402205
v 6.9349709 13.775215 0.23532104
l 761 762
v 6.8909578 14.03295 0.65339625
v 6.9737487 14.039136 0.66659808
l 763 764
v 6.8909578 14.03295 0.65339625
v 6.8144312 14.024923 0.63852006
l 765 766
v 6.7441983 14.01521 0.62222916
v 6.8144312 14.024923 0.63852006
l 767 768
v 6.7441983 14.01521 0.62222916
v 6.6801782 14.003999 0.60479152
l 769 770
v 6.6222091 13.991445 0.58642828
v 6.6801782 14.003999 0.60479152
l 771 772
v 6.6222091 13.991445 0.58642828
v 6.5700665 13.977706 0.56733888
l 773 774
v 7.0626516 14.043329 0.67785072
v 6.9737487 14.039136 0.66659808
l 775 776
v 7.1573758 14.045411 0.68689513
v 7.0626516 14.043329 0.67785072
l 777 778
v 7.1074557 13.77467 0.24167891
v 7.0183277 13.774952 0.23788312
l 779 780
v 7.2020664 13.774371 0.24665084
v 7.1074557 13.77467 0.24167891
l 781 782
v 7.301734 13.774056 0.25269324
v 7.4058919 13.773726 0.25966844
l 783 784
v 7.301734 13.774056 0.25269324
v 7.2020664 13.774371 0.24665084
l 785 786
v 7.257483 14.045309 0.69350404
v 7.36238 14.043006 0.69750178
l 787 788
v 7.257483 14.045309 0.69350404
v 7.1573758 14.045411 0.68689513
l 789 790
v 7.4713321 14.038539 0.6987617
v 7.36238 14.043006 0.69750178
l 791 792
v 7.6978502 14.023521 0.69352722
v 7.5834751 14.031998 0.69729608
l 793 794
v 7.8134317 14.013344 0.68769944
v 7.6978502 14.023521 0.69352722
l 795 796
v 7.6247449 13.773035 0.27575734
v 7.5138388 13.773386 0.26739645
l 797 798
v 7.4713321 14.038539 0.6987617
v 7.5834751 14.031998 0.69729608
l 799 800
v 7.5138388 13.773386 0.26739645
v 7.4058919 13.773726 0.25966844
l 801 802
v 8.6618357 13.902421 0.59500724
v 8.5708981 13.916751 0.60859746
l 803 804
v 9.0828114 13.829749 0.52177316
v 9.0271845 13.839938 0.53242338
l 805 806
v 6.5234823 13.962895 0.54766864
v 6.4821706 13.947102 0.52752268
l 807 808
v 6.5700665 13.977706 0.56733888
v 6.5234823 13.962895 0.54766864
l 809 810
v 6.5137148 13.776544 0.25151351
v 6.4745822 13.776667 0.25830284
l 811 812
v 6.4399405 13.776775 0.26618537
v 6.4745822 13.776667 0.25830284
l 813 814
v 6.4399405 13.776775 0.26618537
v 6.4095721 13.776871 0.27523735
l 815 816
v 6.4458423 13.930349 0.50693178
v 6.4142499 13.912617 0.48588654
l 817 818
v 6.4821706 13.947102 0.52752268
v 6.4458423 13.930349 0.50693178
l 819 820
v 6.3871965 13.893785 0.46427375
v 6.4142499 13.912617 0.48588654
l 821 822
v 6.3871965 13.893785 0.46427375
v 6.3646154 13.873635 0.44189581
l 823 824
v 6.3466597 13.851851 0.41848302
v 6.3646154 13.873635 0.44189581
l 825 826
v 6.3466597 13.851851 0.41848302
v 6.3338623 13.828094 0.39378455
l 827 828
v 6.3271823 13.802576 0.36814269
v 6.3338623 13.828094 0.39378455
l 829 830
v 6.3613954 13.777021 0.29757074
v 6.3440948 13.777076 0.31137842
l 831 832
v 6.3833666 13.776953 0.2856203
v 6.3613954 13.777021 0.29757074
l 833 834
v 6.4095721 13.776871 0.27523735
v 6.3833666 13.776953 0.2856203
l 835 836
v 6.5137148 13.776544 0.25151351
v 6.5575995 13.776405 0.24578758
l 837 838
v 6.6065173 13.776251 0.24113533
v 6.5575995 13.776405 0.24578758
l 839 840
v 6.6607447 13.77608 0.23758979
v 6.6065173 13.776251 0.24113533
l 841 842
v 6.7205305 13.775891 0.23519109
v 6.7860823 13.775685 0.23399003
l 843 844
v 6.7205305 13.775891 0.23519109
v 6.6607447 13.77608 0.23758979
l 845 846
v 6.8575425 13.775459 0.23402205
v 6.7860823 13.775685 0.23399003
l 847 848
v 8.0781746 13.771602 0.31604093
v 8.1888647 13.771252 0.32689574
l 849 850
v 8.1888647 13.771252 0.32689574
v 8.2965488 13.770911 0.33768713
l 851 852
v 8.2965488 13.770911 0.33768713
v 8.400403 13.770582 0.34826317
l 853 854
v 8.400403 13.770582 0.34826317
v 8.4997282 13.770268 0.35849801
l 855 856
v 8.5939617 13.769971 0.36829418
v 8.4997282 13.770268 0.35849801
l 857 858
v 7.3068032 2.1641433 -0.79330981
v 7.2859864 2.172323 -0.79295683
l 859 860
v 7.210001 2.2874584 -0.78398925
v 7.2122383 2.3024359 -0.78283119
l 861 862
v 7.2122383 2.3024359 -0.78283119
v 7.2113686 2.2966139 -0.78328133
l 863 864
v 7.2113686 2.2966139 -0.78328133
v 7.210001 2.2874584 -0.78398925
l 865 866
v 8.842638 13.769184 0.39442164
v 8.9137011 13.768959 0.40194672
l 867 868
v 8.9137011 13.768959 0.40194672
v 8.978898 13.768753 0.40887055
l 869 870
v 8.978898 13.768753 0.40887055
v 9.0383968 13.768565 0.4152047
l 871 872
v 7.5756202 2.2227073 -0.78229064
v 7.5321097 2.2038715 -0.78537571
l 873 874
v 7.5321097 2.2038715 -0.78537571
v 7.5472965 2.2104459 -0.7842989
l 875 876
v 7.5472965 2.2104459 -0.7842989
v 7.5756202 2.2227073 -0.78229064
l 877 878
v 7.6641212 2.2678618 -0.77536273
v 7.6545124 2.2624931 -0.77615756
l 879 880
v 7.6545124 2.2624931 -0.77615756
v 7.6591692 2.265095 -0.77577233
l 881 882
v 7.6591692 2.265095 -0.77577233
v 7.6641212 2.2678618 -0.77536273
l 883 884
v 7.6358209 2.252414 -0.77767485
v 7.6099997 2.2391663 -0.7797175
l 885 886
v 7.619091 2.2438304 -0.77899832
v 7.6358209 2.252414 -0.77767485
l 887 888
v 7.6099997 2.2391663 -0.7797175
v 7.619091 2.2438304 -0.77899832
l 889 890
v 7.6545124 2.2624931 -0.77615756
v 7.6358209 2.252414 -0.77767485
l 891 892
v 7.6358209 2.252414 -0.77767485
v 7.642416 2.2559702 -0.77713948
l 893 894
v 7.642416 2.2559702 -0.77713948
v 7.6545124 2.2624931 -0.77615756
l 895 896
v 9.1853018 13.7681 0.43091553
v 9.2247934 13.767975 0.4351604
l 897 898
v 9.2247934 13.767975 0.4351604
v 9.2601213 13.767863 0.43896657
l 899 900
v 2.4612925 -0.19371921 -3.3825247
v 2.4576752 -0.19371921 -3.3693628
l 901 902
v 2.4612925 -0.19371921 -3.3825247
v 2.4727831 -0.19371921 -3.4067106
l 903 904
v 2.6347318 -0.19371921 -3.4811327
v 2.6609917 -0.19371921 -3.4739158
l 905 906
v 2.6068375 -0.19371921 -3.4836364
v 2.6347318 -0.19371921 -3.4811327
l 907 908
v 2.4881074 -0.19371921 -3.4283826
v 2.5068257 -0.19371921 -3.4471009
l 909 910
v 2.5284977 -0.19371921 -3.4624252
v 2.5068257 -0.19371921 -3.4471009
l 911 912
v 2.5526836 -0.19371921 -3.4739158
v 2.5284977 -0.19371921 -3.4624252
l 913 914
v 2.5789435 -0.19371921 -3.4811327
v 2.5526836 -0.19371921 -3.4739158
l 915 916
v 2.5789435 -0.19371921 -3.4811327
v 2.6068375 -0.19371921 -3.4836364
l 917 918
v 2.6851776 -0.19371921 -3.4624252
v 2.6609917 -0.19371921 -3.4739158
l 919 920
v 2.7068496 -0.19371921 -3.4471009
v 2.6851776 -0.19371921 -3.4624252
l 921 922
v 2.7255678 -0.19371921 -3.4283826
v 2.7068496 -0.19371921 -3.4471009
l 923 924
v 2.7408922 -0.19371921 -3.4067106
v 2.7255678 -0.19371921 -3.4283826
l 925 926
v 2.7523828 -0.19371921 -3.3825247
v 2.7408922 -0.19371921 -3.4067106
l 927 928
v 2.7523828 -0.19371921 -3.3825247
v 2.7595997 -0.19371921 -3.3562648
l 929 930
v 2.7595997 -0.19371921 -3.3562648
v 2.7604682 -0.19371921 -3.3465862
l 931 932
v 2.4881074 -0.19371921 -3.4283826
v 2.4727831 -0.19371921 -3.4067106
l 933 934
v 3.0200713 0.17252898 -3.2604444
v 3.0115416 0.18562882 -3.2544725
l 935 936
v 2.18975 0.17050879 -3.3670919
v 2.18435 0.15820871 -3.3732409
l 937 938
v 2.4576752 0.19371921 -3.3693628
v 2.4612925 0.19371921 -3.3825247
l 939 940
v 2.4612925 0.19371921 -3.3825247
v 2.4727831 0.19371921 -3.4067106
l 941 942
v 2.7523828 0.19371921 -3.3825247
v 2.7595997 0.19371921 -3.3562648
l 943 944
v 2.7595997 0.19371921 -3.3562648
v 2.7604682 0.19371921 -3.3465862
l 945 946
v 2.7523828 0.19371921 -3.3825247
v 2.7408922 0.19371921 -3.4067106
l 947 948
v 2.7408922 0.19371921 -3.4067106
v 2.7255678 0.19371921 -3.4283826
l 949 950
v 2.7255678 0.19371921 -3.4283826
v 2.7068496 0.19371921 -3.4471009
l 951 952
v 2.7068496 0.19371921 -3.4471009
v 2.6851776 0.19371921 -3.4624252
l 953 954
v 2.6609917 0.19371921 -3.4739158
v 2.6851776 0.19371921 -3.4624252
l 955 956
v 2.6347318 0.19371921 -3.4811327
v 2.6609917 0.19371921 -3.4739158
l 957 958
v 2.5789435 0.19371921 -3.4811327
v 2.6068375 0.19371921 -3.4836364
l 959 960
v 2.6068375 0.19371921 -3.4836364
v 2.6347318 0.19371921 -3.4811327
l 961 962
v 2.5526836 0.19371921 -3.4739158
v 2.5789435 0.19371921 -3.4811327
l 963 964
v 2.5526836 0.19371921 -3.4739158
v 2.5284977 0.19371921 -3.4624252
l 965 966
v 2.5284977 0.19371921 -3.4624252
v 2.5068257 0.19371921 -3.4471009
l 967 968
v 2.5068257 0.19371921 -3.4471009
v 2.4881074 0.19371921 -3.4283826
l 969 970
v 2.4727831 0.19371921 -3.4067106
v 2.4881074 0.19371921 -3.4283826
l 971 972
v 24.244835 8.0279705e-17 3.2782803
v 24.074301 4.6250199e-17 2.7225361
l 973 974
v 24.244835 8.0279705e-17 3.2782803
v 24.415369 1.143092e-16 3.8340242
l 975 976
v 24.573193 -0.0010794589 4.3921032
v 24.558632 -0.002307273 4.3947678
l 977 978
v 24.585905 1.4833871e-16 4.3897681
v 24.573193 -0.0010794589 4.3921032
l 979 980
v 24.415369 1.143092e-16 3.8340242
v 24.585905 1.4833871e-16 4.3897681
l 981 982
v 24.573193 0.0010794589 4.3921032
v 24.585905 1.4833871e-16 4.3897681
l 983 984
v 24.573332 3.7801761e-18 4.3925271
v 24.585905 1.4833871e-16 4.3897681
l 985 986
v 24.573332 3.7801761e-18 4.3925271
v 24.558935 -1.294811e-16 4.3956733
l 987 988
v 24.558935 -1.294811e-16 4.3956733
v 24.542477 -2.4314308e-16 4.3992515
l 989 990
v 24.573193 0.0010794589 4.3921032
v 24.558632 0.002307273 4.3947678
l 991 992
v 24.558632 0.002307273 4.3947678
v 24.541988 0.0036997495 4.3978009
l 993 994
v 24.523006 0.0052737226 4.4012446
v 24.541988 0.0036997495 4.3978009
l 995 996
v 24.523006 0.0052737226 4.4012446
v 24.50141 0.0070461445 4.4051414
l 997 998
v 24.502354 -3.7353012e-16 4.407896
v 24.523706 -3.2775278e-16 4.4033093
l 999 1000
v 24.478132 -3.7194389e-16 4.4130616
v 24.502354 -3.7353012e-16 4.407896
l 1001 1002
v 24.50141 -0.0070461445 4.4051414
v 24.523006 -0.0052737226 4.4012446
l 1003 1004
v 24.541988 -0.0036997495 4.3978009
v 24.523006 -0.0052737226 4.4012446
l 1005 1006
v 24.541988 -0.0036997495 4.3978009
v 24.558632 -0.002307273 4.3947678
l 1007 1008
v 24.542477 -2.4314308e-16 4.3992515
v 24.523706 -3.2775278e-16 4.4033093
l 1009 1010
v 24.343849 0.019405181 4.4329138
v 24.382963 0.01642869 4.4261246
l 1011 1012
v 24.343849 0.019405181 4.4329138
v 24.300451 0.022639968 4.4403443
l 1013 1014
v 24.30378 1.0013455e-16 4.4490657
v 24.346628 3.974669e-17 4.4404225
l 1015 1016
v 24.300451 -0.022639968 4.4403443
v 24.343849 -0.019405181 4.4329138
l 1017 1018
v 24.30378 1.0013455e-16 4.4490657
v 24.256514 1.2804651e-16 4.4584379
l 1019 1020
v 24.204622 1.3196783e-16 4.4685621
v 24.256514 1.2804651e-16 4.4584379
l 1021 1022
v 24.300451 0.022639968 4.4403443
v 24.252556 0.026127474 4.4484301
l 1023 1024
v 24.252556 -0.026127474 4.4484301
v 24.300451 -0.022639968 4.4403443
l 1025 1026
v 24.252556 -0.026127474 4.4484301
v 24.199968 -0.029854998 4.457191
l 1027 1028
v 24.199968 -0.029854998 4.457191
v 24.142628 -0.03379726 4.4666033
l 1029 1030
v 24.204622 1.3196783e-16 4.4685621
v 24.148046 1.1858718e-16 4.4794025
l 1031 1032
v 24.148046 1.1858718e-16 4.4794025
v 24.086821 1.0156302e-16 4.4908986
l 1033 1034
v 24.199968 0.029854998 4.457191
v 24.142628 0.03379726 4.4666033
l 1035 1036
v 24.142628 0.03379726 4.4666033
v 24.080572 0.037918735 4.4766235
l 1037 1038
v 24.014055 0.042168222 4.487124
v 24.080572 0.037918735 4.4766235
l 1039 1040
v 24.014055 0.042168222 4.487124
v 23.943285 0.046488043 4.4980555
l 1041 1042
v 23.951468 1.1692284e-16 4.5152764
v 24.021238 9.7828236e-17 4.5028753
l 1043 1044
v 23.943285 -0.046488043 4.4980555
v 24.014055 -0.042168222 4.487124
l 1045 1046
v 23.951468 1.1692284e-16 4.5152764
v 23.877869 1.3657347e-16 4.527987
l 1047 1048
v 24.014055 -0.042168222 4.487124
v 24.080572 -0.037918735 4.4766235
l 1049 1050
v 24.417988 -0.013712869 4.4199872
v 24.382963 -0.01642869 4.4261246
l 1051 1052
v 24.417988 -0.013712869 4.4199872
v 24.449202 -0.011251306 4.4144702
l 1053 1054
v 24.419891 -2.1632332e-16 4.4253197
v 24.385279 -8.3472933e-17 4.4324985
l 1055 1056
v 24.450745 -3.1838139e-16 4.4188542
v 24.419891 -2.1632332e-16 4.4253197
l 1057 1058
v 24.449202 0.011251306 4.4144702
v 24.417988 0.013712869 4.4199872
l 1059 1060
v 24.417988 0.013712869 4.4199872
v 24.382963 0.01642869 4.4261246
l 1061 1062
v 24.449202 0.011251306 4.4144702
v 24.476908 0.0090335393 4.4095354
l 1063 1064
v 24.50141 0.0070461445 4.4051414
v 24.476908 0.0090335393 4.4095354
l 1065 1066
v 24.450745 -3.1838139e-16 4.4188542
v 24.478132 -3.7194389e-16 4.4130616
l 1067 1068
v 24.449202 -0.011251306 4.4144702
v 24.476908 -0.0090335393 4.4095354
l 1069 1070
v 24.50141 -0.0070461445 4.4051414
v 24.476908 -0.0090335393 4.4095354
l 1071 1072
v 23.943285 -0.046488043 4.4980555
v 23.868643 -0.050805267 4.5093222
l 1073 1074
v 23.790695 -0.055036649 4.5207758
v 23.868643 -0.050805267 4.5093222
l 1075 1076
v 23.877869 1.3657347e-16 4.527987
v 23.800999 1.2433975e-16 4.5408187
l 1077 1078
v 23.800999 1.2433975e-16 4.5408187
v 23.721588 1.0333856e-16 4.5535169
l 1079 1080
v 23.868643 0.050805267 4.5093222
v 23.790695 0.055036649 4.5207758
l 1081 1082
v 23.710163 0.059088759 4.5322142
v 23.790695 0.055036649 4.5207758
l 1083 1084
v 23.710163 0.059088759 4.5322142
v 23.62771 0.062863797 4.5435429
l 1085 1086
v 23.640234 1.0475963e-16 4.5659833
v 23.721588 1.0333856e-16 4.5535169
l 1087 1088
v 23.544172 0.066263959 4.5545936
v 23.62771 0.062863797 4.5435429
l 1089 1090
v 23.544172 0.066263959 4.5545936
v 23.460468 0.069193274 4.565156
l 1091 1092
v 23.216578 0.074391551 4.5927591
v 23.295868 0.073317602 4.5843577
l 1093 1094
v 23.14023 0.074765541 4.6002641
v 23.216578 0.074391551 4.5927591
l 1095 1096
v 23.233438 1.492516e-16 4.6180024
v 23.312115 1.4954114e-16 4.6094847
l 1097 1098
v 23.14023 -0.074765541 4.6002641
v 23.216578 -0.074391551 4.5927591
l 1099 1100
v 23.233438 1.492516e-16 4.6180024
v 23.157532 1.5582778e-16 4.6253948
l 1101 1102
v 23.084944 1.6524276e-16 4.6316199
v 23.157532 1.5582778e-16 4.6253948
l 1103 1104
v 23.14023 0.074765541 4.6002641
v 23.067389 0.074433938 4.6068254
l 1105 1106
v 23.067389 -0.074433938 4.6068254
v 23.14023 -0.074765541 4.6002641
l 1107 1108
v 23.067389 -0.074433938 4.6068254
v 22.998497 -0.0734125 4.612431
l 1109 1110
v 22.933878 -0.071740583 4.6170969
v 22.998497 -0.0734125 4.612431
l 1111 1112
v 23.084944 1.6524276e-16 4.6316199
v 23.016113 1.7767398e-16 4.6366811
l 1113 1114
v 23.295868 -0.073317602 4.5843577
v 23.216578 -0.074391551 4.5927591
l 1115 1116
v 23.295868 -0.073317602 4.5843577
v 23.37742 -0.071567774 4.5751233
l 1117 1118
v 23.392897 1.4175572e-16 4.5999022
v 23.312115 1.4954114e-16 4.6094847
l 1119 1120
v 23.475048 1.3556078e-16 4.5893602
v 23.392897 1.4175572e-16 4.5999022
l 1121 1122
v 23.37742 0.071567774 4.5751233
v 23.295868 0.073317602 4.5843577
l 1123 1124
v 23.460468 0.069193274 4.565156
v 23.37742 0.071567774 4.5751233
l 1125 1126
v 23.557753 1.3904896e-16 4.5780172
v 23.475048 1.3556078e-16 4.5893602
l 1127 1128
v 23.37742 -0.071567774 4.5751233
v 23.460468 -0.069193274 4.565156
l 1129 1130
v 23.460468 -0.069193274 4.565156
v 23.544172 -0.066263959 4.5545936
l 1131 1132
v 23.62771 -0.062863797 4.5435429
v 23.544172 -0.066263959 4.5545936
l 1133 1134
v 23.790695 -0.055036649 4.5207758
v 23.710163 -0.059088759 4.5322142
l 1135 1136
v 23.710163 -0.059088759 4.5322142
v 23.62771 -0.062863797 4.5435429
l 1137 1138
v 22.933878 0.071740583 4.6170969
v 22.998497 0.0734125 4.612431
l 1139 1140
v 22.933878 0.071740583 4.6170969
v 22.873749 0.069464661 4.6208434
l 1141 1142
v 22.951363 1.8944755e-16 4.6406121
v 23.016113 1.7767398e-16 4.6366811
l 1143 1144
v 22.951363 1.8944755e-16 4.6406121
v 22.890923 2.2334885e-16 4.6434493
l 1145 1146
v 22.873749 -0.069464661 4.6208434
v 22.933878 -0.071740583 4.6170969
l 1147 1148
v 22.818174 -0.06664592 4.6237307
v 22.873749 -0.069464661 4.6208434
l 1149 1150
v 22.767151 -0.063344255 4.6258106
v 22.720592 -0.059622124 4.6271405
l 1151 1152
v 22.767151 -0.063344255 4.6258106
v 22.818174 -0.06664592 4.6237307
l 1153 1154
v 22.834864 2.1353625e-16 4.6452808
v 22.783194 1.9082694e-16 4.6461763
l 1155 1156
v 22.890923 2.2334885e-16 4.6434493
v 22.834864 2.1353625e-16 4.6452808
l 1157 1158
v 22.818174 0.06664592 4.6237307
v 22.767151 0.063344255 4.6258106
l 1159 1160
v 22.767151 0.063344255 4.6258106
v 22.720592 0.059622124 4.6271405
l 1161 1162
v 22.678324 0.055530094 4.6277843
v 22.720592 0.059622124 4.6271405
l 1163 1164
v 22.575029 0.041372992 4.6260519
v 22.605795 0.046391152 4.6272063
l 1165 1166
v 22.575029 0.041372992 4.6260519
v 22.547577 0.036034081 4.6243324
l 1167 1168
v 22.585945 2.4326545e-16 4.6390982
v 22.617958 2.7589671e-16 4.6418748
l 1169 1170
v 22.585945 2.4326545e-16 4.6390982
v 22.557138 1.5906775e-16 4.6356702
l 1171 1172
v 22.547577 -0.036034081 4.6243324
v 22.575029 -0.041372992 4.6260519
l 1173 1174
v 22.575029 -0.041372992 4.6260519
v 22.605795 -0.046391152 4.6272063
l 1175 1176
v 22.640141 -0.051111158 4.6277914
v 22.605795 -0.046391152 4.6272063
l 1177 1178
v 22.678324 -0.055530094 4.6277843
v 22.640141 -0.051111158 4.6277914
l 1179 1180
v 22.692661 2.4751833e-16 4.6454673
v 22.653444 2.3642317e-16 4.6440053
l 1181 1182
v 22.678324 0.055530094 4.6277843
v 22.640141 0.051111158 4.6277914
l 1183 1184
v 22.735847 2.2285977e-16 4.6462111
v 22.692661 2.4751833e-16 4.6454673
l 1185 1186
v 22.678324 -0.055530094 4.6277843
v 22.720592 -0.059622124 4.6271405
l 1187 1188
v 22.783194 1.9082694e-16 4.6461763
v 22.735847 2.2285977e-16 4.6462111
l 1189 1190
v 22.640141 0.051111158 4.6277914
v 22.605795 0.046391152 4.6272063
l 1191 1192
v 22.617958 2.7589671e-16 4.6418748
v 22.653444 2.3642317e-16 4.6440053
l 1193 1194
v 22.547577 -0.036034081 4.6243324
v 22.523201 -0.030303145 4.6220088
l 1195 1196
v 22.501736 -0.024044724 4.6189818
v 22.523201 -0.030303145 4.6220088
l 1197 1198
v 22.557138 1.5906775e-16 4.6356702
v 22.531284 3.3108882e-16 4.6315274
l 1199 1200
v 22.523201 0.030303145 4.6220088
v 22.501736 0.024044724 4.6189818
l 1201 1202
v 22.523201 0.030303145 4.6220088
v 22.547577 0.036034081 4.6243324
l 1203 1204
v 22.818174 0.06664592 4.6237307
v 22.873749 0.069464661 4.6208434
l 1205 1206
v 23.067389 0.074433938 4.6068254
v 22.998497 0.0734125 4.612431
l 1207 1208
v 23.868643 0.050805267 4.5093222
v 23.943285 0.046488043 4.4980555
l 1209 1210
v 24.199968 0.029854998 4.457191
v 24.252556 0.026127474 4.4484301
l 1211 1212
v 23.640234 1.0475963e-16 4.5659833
v 23.557753 1.3904896e-16 4.5780172
l 1213 1214
v 24.385279 -8.3472933e-17 4.4324985
v 24.346628 3.974669e-17 4.4404225
l 1215 1216
v 24.343849 -0.019405181 4.4329138
v 24.382963 -0.01642869 4.4261246
l 1217 1218
v 24.142628 -0.03379726 4.4666033
v 24.080572 -0.037918735 4.4766235
l 1219 1220
v 24.086821 1.0156302e-16 4.4908986
v 24.021238 9.7828236e-17 4.5028753
l 1221 1222
v 7.6767969 2.5063465 -2.0859199
v 7.6767969 2.5100248 -2.1067805
l 1223 1224
v 7.6767969 2.4429095 -1.7261513
v 7.6767969 2.5063465 -2.0859199
l 1225 1226
v 7.6767969 2.3794725 -1.3663827
v 7.6767969 2.4429095 -1.7261513
l 1227 1228
v 7.6767969 2.3794725 -1.3663827
v 7.6767969 2.3160357 -1.0066141
l 1229 1230
v 7.6767969 2.3160357 -1.0066141
v 7.6767969 2.2750583 -0.77421981
l 1231 1232
v 7.6641726 2.5023367 -2.1049685
v 7.6545124 2.4966183 -2.1039476
l 1233 1234
v 7.2122383 2.4843342 -2.1077368
v 7.212554 2.4833744 -2.1079352
l 1235 1236
v 7.212554 2.4833744 -2.1079352
v 7.2166038 2.4710665 -2.1104794
l 1237 1238
v 7.210001 2.5201538 -2.1036704
v 7.2095861 2.5101614 -2.1044252
l 1239 1240
v 7.2095861 2.5101614 -2.1044252
v 7.2095637 2.5096166 -2.1044664
l 1241 1242
v 7.2095861 2.5090747 -2.1045051
v 7.210001 2.4990718 -2.1052191
l 1243 1244
v 7.2095637 2.5096166 -2.1044664
v 7.2095861 2.5090747 -2.1045051
l 1245 1246
v 7.2276063 2.5697834 -2.0991423
v 7.2317739 2.5767643 -2.0994463
l 1247 1248
v 7.5756202 2.5615153 -2.0938294
v 7.5959139 2.5516555 -2.0945303
l 1249 1250
v 7.6767969 -2.5100248 -2.1067805
v 7.6767969 -2.5063465 -2.0859199
l 1251 1252
v 7.6762705 -2.510313 -2.1066601
v 7.6767969 -2.5100248 -2.1067805
l 1253 1254
v 7.6767969 -2.5063465 -2.0859199
v 7.6767969 -2.4429095 -1.7261513
l 1255 1256
v 7.6676855 -2.515012 -2.1046987
v 7.6762705 -2.510313 -2.1066601
l 1257 1258
v 7.6767969 -2.4429095 -1.7261513
v 7.6767969 -2.3794725 -1.3663827
l 1259 1260
v 7.6767969 -2.3794725 -1.3663827
v 7.6767969 -2.3160357 -1.0066141
l 1261 1262
v 7.6767969 -2.2750583 -0.77421981
v 7.6767969 -2.3160357 -1.0066141
l 1263 1264
v 7.3283458 -2.397661 -2.1265938
v 7.3100562 -2.3990076 -2.1266413
l 1265 1266
v 7.2650232 -2.414983 -2.1220787
v 7.2793269 -2.4095795 -2.1235514
l 1267 1268
v 7.2793269 -2.4095795 -2.1235514
v 7.2723322 -2.4122219 -2.1228311
l 1269 1270
v 7.2723322 -2.4122219 -2.1228311
v 7.2650232 -2.414983 -2.1220787
l 1271 1272
v 7.2101231 -2.5209713 -2.1036041
v 7.2122383 -2.5351217 -2.1024585
l 1273 1274
v 7.210001 -2.5201538 -2.1036704
v 7.2101231 -2.5209713 -2.1036041
l 1275 1276
v 7.2095861 -2.5101614 -2.1044252
v 7.210001 -2.5201538 -2.1036704
l 1277 1278
v 7.2095637 -2.5096166 -2.1044664
v 7.2095861 -2.5101614 -2.1044252
l 1279 1280
v 7.3068032 -2.6231511 -2.1002319
v 7.2793269 -2.6122708 -2.1002221
l 1281 1282
v 7.3621678 -2.6270208 -2.0992033
v 7.3283458 -2.6246376 -2.0997221
l 1283 1284
v 7.4308367 -2.6155045 -2.0972998
v 7.4576869 -2.6076524 -2.0964985
l 1285 1286
v 7.4576869 -2.6076524 -2.0964985
v 7.4756894 -2.6023877 -2.0959613
l 1287 1288
v 7.5568247 -2.5697834 -2.0932436
v 7.5756202 -2.5615153 -2.0938294
l 1289 1290
v 8.1904736 -2.5970247 -2.9391677
v 8.1904907 -2.5959792 -2.9392374
l 1291 1292
v 8.190383 -2.6025388 -2.9388013
v 8.1902924 -2.6080527 -2.9384346
l 1293 1294
v 8.1902018 -2.6135666 -2.9380682
v 8.1902876 -2.6083519 -2.9384148
l 1295 1296
v 8.1902876 -2.6083519 -2.9384148
v 8.1902924 -2.6080527 -2.9384346
l 1297 1298
v 8.1904907 -2.5959792 -2.9392374
v 8.1905594 -2.5917585 -2.939518
l 1299 1300
v 8.1907444 -2.580483 -2.9402676
v 8.19065 -2.5862274 -2.9398856
l 1301 1302
v 8.19065 -2.5862274 -2.9398856
v 8.1906538 -2.5859969 -2.9399009
l 1303 1304
v 8.1907396 -2.5587854 -2.9402478
v 8.1909142 -2.5694528 -2.9409568
l 1305 1306
v 8.190649 -2.5532715 -2.9398811
v 8.1907396 -2.5587854 -2.9402478
l 1307 1308
v 8.1682158 -2.4256752 -2.9188552
v 8.1682119 -2.4256661 -2.9188523
l 1309 1310
v 8.190197 -2.5257015 -2.9380484
v 8.1902876 -2.5312157 -2.9384148
l 1311 1312
v 8.1902828 -2.5309155 -2.9383948
v 8.190197 -2.5257015 -2.9380484
l 1313 1314
v 8.1902876 -2.5312157 -2.9384148
v 8.1902828 -2.5309155 -2.9383948
l 1315 1316
v 8.1902876 -2.5312157 -2.9384148
v 8.1903782 -2.5367296 -2.9387815
l 1317 1318
v 8.1900749 -2.5198531 -2.9375505
v 8.190115 -2.520658 -2.9377129
l 1319 1320
v 8.1897993 -2.5143218 -2.9364338
v 8.1900749 -2.5198531 -2.9375505
l 1321 1322
v 8.1285439 -2.7659745 -2.9085429
v 8.1297426 -2.7646277 -2.9089372
l 1323 1324
v 8.1273928 -2.7672675 -2.9081643
v 8.1285439 -2.7659745 -2.9085429
l 1325 1326
v 8.1273928 -2.7672675 -2.9081643
v 8.1188917 -2.7767899 -2.9052708
l 1327 1328
v 7.8905387 -2.2848201 -2.9529829
v 7.9122272 -2.2841027 -2.9431808
l 1329 1330
v 7.8538318 -2.8385699 -2.9801757
v 7.846839 -2.8373888 -2.9837775
l 1331 1332
v 7.846839 -2.8373888 -2.9837775
v 7.8256278 -2.8322856 -2.9958508
l 1333 1334
v 7.7515273 -2.3245966 -3.0310292
v 7.7621346 -2.3192005 -3.0247524
l 1335 1336
v 7.7621346 -2.3192005 -3.0247524
v 7.7576475 -2.3214831 -3.0274074
l 1337 1338
v 7.7576475 -2.3214831 -3.0274074
v 7.7515273 -2.3245966 -3.0310292
l 1339 1340
v 7.741539 -2.3019691 -3.0212934
v 7.7415347 -2.3018987 -3.0212417
l 1341 1342
v 7.7415409 -2.3020065 -3.0213208
v 7.741539 -2.3019691 -3.0212934
l 1343 1344
v 7.7413654 -2.2990572 -3.0191495
v 7.7414522 -2.3005133 -3.0202215
l 1345 1346
v 7.7415347 -2.3018987 -3.0212417
v 7.7414522 -2.3005133 -3.0202215
l 1347 1348
v 7.7406764 -2.2947719 -3.0161288
v 7.7406621 -2.2946897 -3.0160711
l 1349 1350
v 7.7409134 -2.2961454 -3.0170918
v 7.7406764 -2.2947719 -3.0161288
l 1351 1352
v 7.7399368 -2.2904956 -3.0131304
v 7.7404299 -2.2933464 -3.0151293
l 1353 1354
v 7.7409134 -2.2961454 -3.0170918
v 7.7411652 -2.2976015 -3.0181129
l 1355 1356
v 7.7409225 -2.2961972 -3.017128
v 7.7409134 -2.2961454 -3.0170918
l 1357 1358
v 7.7411652 -2.2976015 -3.0181129
v 7.7409225 -2.2961972 -3.017128
l 1359 1360
v 7.7409134 -2.2961454 -3.0170918
v 7.741169 -2.2976224 -3.0181277
l 1361 1362
v 7.7408633 -2.3136971 -3.027998
v 7.7409763 -2.3128414 -3.0274913
l 1363 1364
v 7.7409763 -2.3128414 -3.0274913
v 7.741529 -2.3086522 -3.0250111
l 1365 1366
v 7.7268176 -2.7900586 -3.0518355
v 7.7303314 -2.7932622 -3.0490649
l 1367 1368
v 7.7413611 -2.814508 -3.0341599
v 7.7405539 -2.8113213 -3.0361562
l 1369 1370
v 7.7405539 -2.8113213 -3.0361562
v 7.7401381 -2.8096807 -3.0371838
l 1371 1372
v 7.7401381 -2.8096807 -3.0371838
v 7.739078 -2.8069069 -3.0390222
l 1373 1374
v 7.739078 -2.8069069 -3.0390222
v 7.73839 -2.8051069 -3.0402153
l 1375 1376
v 7.73839 -2.8051069 -3.0402153
v 7.7371516 -2.802737 -3.0418804
l 1377 1378
v 7.7371516 -2.802737 -3.0418804
v 7.7361507 -2.8008223 -3.0432253
l 1379 1380
v 7.7416496 -2.835083 -3.0226643
v 7.7415867 -2.8365166 -3.0218871
l 1381 1382
v 7.7417126 -2.8336499 -3.0234418
v 7.7416496 -2.835083 -3.0226643
l 1383 1384
v 7.7417126 -2.8336499 -3.0234418
v 7.7417183 -2.8335156 -3.0235145
l 1385 1386
v 7.6676855 -2.5044401 -2.1054754
v 7.6641726 -2.5023367 -2.1049685
l 1387 1388
v 7.5959139 -2.2903218 -3.0417316
v 7.6053524 -2.2903218 -3.0413196
l 1389 1390
v 7.5001726 -2.8378832 -3.0477734
v 7.49508 -2.8378832 -3.047749
l 1391 1392
v 7.5177522 -2.8378832 -3.047857
v 7.5001726 -2.8378832 -3.0477734
l 1393 1394
v 7.4843359 -2.8378832 -3.0476978
v 7.4772015 -2.8378832 -3.0476298
l 1395 1396
v 7.4055576 -2.8378832 -3.0467913
v 7.3925776 -2.8378832 -3.0465875
l 1397 1398
v 7.4394655 -2.8378832 -3.0472703
v 7.4323182 -2.8378832 -3.0472021
l 1399 1400
v 7.2685037 -2.8378832 -3.0431075
v 7.2389865 -2.8378832 -3.0418096
l 1401 1402
v 7.4165277 -2.2903218 -3.0406606
v 7.426518 -2.2903218 -3.0408175
l 1403 1404
v 7.4074244 -2.2903218 -3.0405178
v 7.4165277 -2.2903218 -3.0406606
l 1405 1406
v 7.4404993 -2.2903218 -3.0409772
v 7.4503365 -2.2903218 -3.0410709
l 1407 1408
v 7.4503365 -2.2903218 -3.0410709
v 7.4562397 -2.2903218 -3.0411272
l 1409 1410
v 7.4851947 -2.2903218 -3.041399
v 7.4914546 -2.2903218 -3.0414288
l 1411 1412
v 7.4914546 -2.2903218 -3.0414288
v 7.5183005 -2.2903218 -3.0415568
l 1413 1414
v 7.1981125 -2.2903218 -3.0326879
v 7.225235 -2.2903218 -3.0343854
l 1415 1416
v 7.1293664 -2.2976015 -3.0323071
v 7.1294312 -2.2961454 -3.0315053
l 1417 1418
v 7.1293197 -2.2986491 -3.0328841
v 7.1294312 -2.2961454 -3.0315053
l 1419 1420
v 7.1410089 -2.8378832 -3.0356214
v 7.1291847 -2.8378832 -3.0345554
l 1421 1422
v 7.1291847 -2.8378832 -3.0345554
v 7.1291199 -2.8364275 -3.035357
l 1423 1424
v 7.1291409 -2.8368998 -3.0350969
v 7.1291847 -2.8378832 -3.0345554
l 1425 1426
v 7.1291199 -2.8364275 -3.035357
v 7.1291409 -2.8368998 -3.0350969
l 1427 1428
v 7.129055 -2.8349714 -3.036159
v 7.1289496 -2.8326008 -3.0374646
l 1429 1430
v 7.1289496 -2.8326008 -3.0374646
v 7.1289902 -2.8335156 -3.0369606
l 1431 1432
v 7.129055 -2.8349714 -3.036159
v 7.1288857 -2.8311677 -3.0382538
l 1433 1434
v 7.129055 -2.8349714 -3.036159
v 7.1287961 -2.8291478 -3.0393662
l 1435 1436
v 7.1287584 -2.8283017 -3.0398324
v 7.1286945 -2.8268688 -3.0406215
l 1437 1438
v 7.129055 -2.8349714 -3.036159
v 7.1287584 -2.8283017 -3.0398324
l 1439 1440
v 7.1286945 -2.8268688 -3.0406215
v 7.1286306 -2.8254356 -3.0414107
l 1441 1442
v 6.8708572 -2.8376563 -2.9893334
v 6.8874726 -2.8402073 -2.9921482
l 1443 1444
v 6.868052 -2.8372254 -2.9888582
v 6.8708572 -2.8376563 -2.9893334
l 1445 1446
v 6.8337836 -2.8297517 -2.9831657
v 6.8300691 -2.8288453 -2.9824257
l 1447 1448
v 6.7956357 -2.8181381 -2.9769664
v 6.7972674 -2.8186879 -2.9772718
l 1449 1450
v 6.793334 -2.8173623 -2.9765356
v 6.7956357 -2.8181381 -2.9769664
l 1451 1452
v 6.7593145 -2.7969928 -2.974653
v 6.7703781 -2.8062744 -2.9746222
l 1453 1454
v 6.7564034 -2.7945504 -2.9746611
v 6.7593145 -2.7969928 -2.974653
l 1455 1456
v 6.7267718 -2.761688 -2.97826
v 6.7297711 -2.7654057 -2.9777853
l 1457 1458
v 6.7232838 -2.7573643 -2.9788122
v 6.7267718 -2.761688 -2.97826
l 1459 1460
v 6.6916876 -2.6981807 -2.9864562
v 6.6978402 -2.7136314 -2.9840412
l 1461 1462
v 6.688642 -2.6905324 -2.9876516
v 6.6916876 -2.6981807 -2.9864562
l 1463 1464
v 6.6765599 -2.6275358 -2.9954922
v 6.6757922 -2.6138833 -2.996032
l 1465 1466
v 6.6757116 -2.5996156 -2.9970317
v 6.6756802 -2.5941017 -2.9974179
l 1467 1468
v 6.6756983 -2.5972896 -2.9971945
v 6.6757116 -2.5996156 -2.9970317
l 1469 1470
v 6.6756802 -2.5941017 -2.9974179
v 6.6756983 -2.5972896 -2.9971945
l 1471 1472
v 6.6757922 -2.6138833 -2.996032
v 6.6757607 -2.6083519 -2.9964197
l 1473 1474
v 6.6756358 -2.5862274 -2.9979696
v 6.6756043 -2.5806961 -2.9983571
l 1475 1476
v 6.6756177 -2.5830739 -2.9981904
v 6.6756358 -2.5862274 -2.9979696
l 1477 1478
v 6.6756043 -2.5806961 -2.9983571
v 6.6756177 -2.5830739 -2.9981904
l 1479 1480
v 6.6756372 -2.5530403 -2.9979486
v 6.6756196 -2.5561948 -2.9981697
l 1481 1482
v 6.6756506 -2.5506806 -2.9977832
v 6.6756372 -2.5530403 -2.9979486
l 1483 1484
v 6.6758251 -2.5198531 -2.9956236
v 6.6758566 -2.5143218 -2.9952362
l 1485 1486
v 6.6757445 -2.5341387 -2.9966245
v 6.6757755 -2.5286248 -2.9962382
l 1487 1488
v 6.6757755 -2.5286248 -2.9962382
v 6.6758251 -2.5198531 -2.9956236
l 1489 1490
v 6.6756687 -2.547509 -2.997561
v 6.6757131 -2.5396528 -2.9970107
l 1491 1492
v 6.6758251 -2.5198531 -2.9956236
v 6.6757131 -2.5396528 -2.9970107
l 1493 1494
v 6.6757312 -2.5364466 -2.9967861
v 6.6757131 -2.5396528 -2.9970107
l 1495 1496
v 8.1907444 2.580483 -2.9402676
v 8.190835 2.5749691 -2.9406343
l 1497 1498
v 8.19065 2.5862274 -2.9398856
v 8.1907406 2.5806961 -2.9402535
l 1499 1500
v 8.1906538 2.5859969 -2.9399009
v 8.19065 2.5862274 -2.9398856
l 1501 1502
v 8.1907406 2.5806961 -2.9402535
v 8.1906538 2.5859969 -2.9399009
l 1503 1504
v 8.1902876 2.6083519 -2.9384148
v 8.190383 2.6025388 -2.9388013
l 1505 1506
v 8.1905584 2.5477576 -2.9395146
v 8.1904907 2.5435874 -2.9392374
l 1507 1508
v 8.1905546 2.547509 -2.9394979
v 8.1905584 2.5477576 -2.9395146
l 1509 1510
v 8.1904907 2.5435874 -2.9392374
v 8.1905546 2.547509 -2.9394979
l 1511 1512
v 8.190649 2.5532715 -2.9398811
v 8.1907358 2.5585713 -2.9402335
l 1513 1514
v 8.1906452 2.5530403 -2.9398658
v 8.190649 2.5532715 -2.9398811
l 1515 1516
v 8.1905584 2.5477576 -2.9395146
v 8.1906452 2.5530403 -2.9398658
l 1517 1518
v 8.1907396 2.5587854 -2.9402478
v 8.1905584 2.5477576 -2.9395146
l 1519 1520
v 8.1086702 2.3435133 -2.8958941
v 8.1116838 2.3463678 -2.8965268
l 1521 1522
v 8.12533 2.3607323 -2.9004765
v 8.1273928 2.3630431 -2.9011786
l 1523 1524
v 8.117012 2.3514152 -2.8976455
v 8.12533 2.3607323 -2.9004765
l 1525 1526
v 8.1116838 2.3463678 -2.8965268
v 8.117012 2.3514152 -2.8976455
l 1527 1528
v 8.1285439 2.7659745 -2.9085429
v 8.1273928 2.7672675 -2.9081643
l 1529 1530
v 8.1297426 2.7646277 -2.9089372
v 8.1285439 2.7659745 -2.9085429
l 1531 1532
v 8.0422287 2.3047225 -2.8976552
v 8.0240355 2.2993598 -2.9020677
l 1533 1534
v 8.078042 2.3177025 -2.8908648
v 8.0602264 2.3108428 -2.8938737
l 1535 1536
v 7.9282928 2.2844729 -2.9365587
v 7.9284892 2.2844775 -2.9364648
l 1537 1538
v 7.9284892 2.2844775 -2.9364648
v 7.9312177 2.2845414 -2.9351602
l 1539 1540
v 8.0040789 2.8342478 -2.9180524
v 8.0006723 2.8349452 -2.919095
l 1541 1542
v 8.0063276 2.8337872 -2.9173641
v 8.0040789 2.8342478 -2.9180524
l 1543 1544
v 7.8538313 2.2893095 -2.9713552
v 7.8538318 2.2893095 -2.971355
l 1545 1546
v 7.8449097 2.2908163 -2.9759505
v 7.8538313 2.2893095 -2.9713552
l 1547 1548
v 7.8256278 2.8322856 -2.9958508
v 7.846839 2.8373888 -2.9837775
l 1549 1550
v 7.7421012 2.82478 -3.0282524
v 7.7420268 2.8195529 -3.031173
l 1551 1552
v 7.7419009 2.8293498 -3.025774
v 7.7419639 2.8279161 -3.0265515
l 1553 1554
v 7.7418461 2.8306038 -3.0250938
v 7.7419639 2.8279161 -3.0265515
l 1555 1556
v 7.7417822 2.8320596 -3.0243042
v 7.7418461 2.8306038 -3.0250938
l 1557 1558
v 7.7416496 2.835083 -3.0226643
v 7.7417126 2.8336499 -3.0234418
l 1559 1560
v 7.7417126 2.8336499 -3.0234418
v 7.7417822 2.8320596 -3.0243042
l 1561 1562
v 7.7303314 2.7932622 -3.0490649
v 7.7268176 2.7900586 -3.0518355
l 1563 1564
v 7.7401381 2.8096807 -3.0371838
v 7.7405539 2.8113213 -3.0361562
l 1565 1566
v 7.7405539 2.8113213 -3.0361562
v 7.7413611 2.814508 -3.0341599
l 1567 1568
v 7.7224479 2.3409188 -3.0483062
v 7.7263198 2.3381467 -3.0456736
l 1569 1570
v 7.7263198 2.3381467 -3.0456736
v 7.7244906 2.3394563 -3.0469172
l 1571 1572
v 7.7244906 2.3394563 -3.0469172
v 7.7224479 2.3409188 -3.0483062
l 1573 1574
v 7.741529 2.3086522 -3.0250111
v 7.7409763 2.3128414 -3.0274913
l 1575 1576
v 7.7409763 2.3128414 -3.0274913
v 7.7408633 2.3136971 -3.027998
l 1577 1578
v 7.7404103 2.2932336 -3.0150502
v 7.7401586 2.2917778 -3.0140295
l 1579 1580
v 7.7401834 2.2919211 -3.0141299
v 7.7404103 2.2932336 -3.0150502
l 1581 1582
v 7.7401586 2.2917778 -3.0140295
v 7.7401834 2.2919211 -3.0141299
l 1583 1584
v 7.7404299 2.2933464 -3.0151293
v 7.7401586 2.2917778 -3.0140295
l 1585 1586
v 7.741539 2.3019691 -3.0212934
v 7.7414522 2.3005133 -3.0202215
l 1587 1588
v 7.7414498 2.3004735 -3.0201921
v 7.7414522 2.3005133 -3.0202215
l 1589 1590
v 7.7406764 2.2947719 -3.0161288
v 7.7409134 2.2961454 -3.0170918
l 1591 1592
v 7.7406621 2.2946897 -3.0160711
v 7.7406764 2.2947719 -3.0161288
l 1593 1594
v 7.7411652 2.2976015 -3.0181129
v 7.7409134 2.2961454 -3.0170918
l 1595 1596
v 7.7409225 2.2961972 -3.017128
v 7.7411652 2.2976015 -3.0181129
l 1597 1598
v 7.7409134 2.2961454 -3.0170918
v 7.7409225 2.2961972 -3.017128
l 1599 1600
v 7.741169 2.2976224 -3.0181277
v 7.7409134 2.2961454 -3.0170918
l 1601 1602
v 7.7205434 2.2903218 -3.019006
v 7.7069941 2.2903218 -3.0227406
l 1603 1604
v 7.6390934 2.2903218 -3.0381203
v 7.6295004 2.2903218 -3.0393262
l 1605 1606
v 7.6053524 2.2903218 -3.0413196
v 7.5959139 2.2903218 -3.0417316
l 1607 1608
v 7.4652472 2.8378832 -3.0475159
v 7.4828672 2.8378832 -3.0476837
l 1609 1610
v 7.5012927 2.8378832 -3.0477786
v 7.5366464 2.8378832 -3.0479472
l 1611 1612
v 7.3967543 2.2903218 -3.0403502
v 7.3800087 2.2903218 -3.0400875
l 1613 1614
v 7.4151535 2.2903218 -3.0406389
v 7.4074244 2.2903218 -3.0405178
l 1615 1616
v 7.3470931 2.2903218 -3.039326
v 7.3788443 2.2903218 -3.0400691
l 1617 1618
v 7.2784963 2.2903218 -3.0370452
v 7.2324462 2.2903218 -3.0348272
l 1619 1620
v 7.2389865 2.8378832 -3.0418096
v 7.2685037 2.8378832 -3.0431075
l 1621 1622
v 7.1410089 2.2903218 -3.0283637
v 7.1830373 2.2903218 -3.0316999
l 1623 1624
v 7.225235 2.2903218 -3.0343854
v 7.1981125 2.2903218 -3.0326879
l 1625 1626
v 7.1295104 2.2946897 -3.0305245
v 7.1295304 2.2943571 -3.0302756
l 1627 1628
v 7.1295304 2.2943571 -3.0302756
v 7.1295986 2.2932336 -3.0294342
l 1629 1630
v 7.1297746 2.2903218 -3.0272541
v 7.1296868 2.2917778 -3.0283444
l 1631 1632
v 7.1296868 2.2917778 -3.0283444
v 7.129703 2.2915072 -3.0281417
l 1633 1634
v 7.129703 2.2915072 -3.0281417
v 7.1297746 2.2903218 -3.0272541
l 1635 1636
v 7.1295986 2.2932336 -3.0294342
v 7.1296167 2.292932 -3.0292084
l 1637 1638
v 7.1296167 2.292932 -3.0292084
v 7.1296868 2.2917778 -3.0283444
l 1639 1640
v 7.1292367 2.3005133 -3.033911
v 7.1291718 2.3019691 -3.0347126
l 1641 1642
v 7.1293197 2.2986491 -3.0328841
v 7.1292367 2.3005133 -3.033911
l 1643 1644
v 7.1292367 2.3005133 -3.033911
v 7.1292558 2.3000822 -3.0336735
l 1645 1646
v 7.1293836 2.2972162 -3.032095
v 7.1292367 2.3005133 -3.033911
l 1647 1648
v 7.1294556 2.2955942 -3.0312018
v 7.1292367 2.3005133 -3.033911
l 1649 1650
v 7.1485691 2.3409188 -3.057935
v 7.1410089 2.3365493 -3.0549631
l 1651 1652
v 7.1410089 2.3365493 -3.0549631
v 7.1433859 2.337923 -3.0558975
l 1653 1654
v 7.1433859 2.337923 -3.0558975
v 7.1485691 2.3409188 -3.057935
l 1655 1656
v 7.1291199 2.8364275 -3.035357
v 7.1291847 2.8378832 -3.0345554
l 1657 1658
v 7.1291409 2.8368998 -3.0350969
v 7.1291199 2.8364275 -3.035357
l 1659 1660
v 7.1291847 2.8378832 -3.0345554
v 7.1291409 2.8368998 -3.0350969
l 1661 1662
v 7.1289496 2.8326008 -3.0374646
v 7.1289258 2.8320596 -3.0377626
l 1663 1664
v 7.1289902 2.8335156 -3.0369606
v 7.1289496 2.8326008 -3.0374646
l 1665 1666
v 7.1288857 2.8311677 -3.0382538
v 7.129055 2.8349714 -3.036159
l 1667 1668
v 7.1287584 2.8283017 -3.0398324
v 7.1288223 2.8297348 -3.0390429
l 1669 1670
v 7.1287961 2.8291478 -3.0393662
v 7.1287584 2.8283017 -3.0398324
l 1671 1672
v 7.1288223 2.8297348 -3.0390429
v 7.1287961 2.8291478 -3.0393662
l 1673 1674
v 7.1287584 2.8283017 -3.0398324
v 7.1288857 2.8311677 -3.0382538
l 1675 1676
v 7.1286306 2.8254356 -3.0414107
v 7.1286016 2.82478 -3.0417717
l 1677 1678
v 7.1286664 2.826236 -3.0409698
v 7.1286306 2.8254356 -3.0414107
l 1679 1680
v 7.1293526 2.814508 -3.0475378
v 7.1286769 2.8195529 -3.0446782
l 1681 1682
v 7.1289878 2.8172314 -3.045994
v 7.1293526 2.814508 -3.0475378
l 1683 1684
v 7.1286769 2.8195529 -3.0446782
v 7.1289878 2.8172314 -3.045994
l 1685 1686
v 7.1305947 2.8096807 -3.0503278
v 7.1293526 2.814508 -3.0475378
l 1687 1688
v 6.8881497 2.287998 -2.9837668
v 6.8892212 2.2878804 -2.9839838
l 1689 1690
v 6.8892212 2.2878804 -2.9839838
v 6.9024382 2.2864313 -2.9866605
l 1691 1692
v 6.7761497 2.3177025 -2.9655492
v 6.7769728 2.3173862 -2.9656742
l 1693 1694
v 6.7769728 2.3173862 -2.9656742
v 6.790844 2.3120565 -2.967777
l 1695 1696
v 6.7593145 2.7969928 -2.974653
v 6.7564034 2.7945504 -2.9746611
l 1697 1698
v 6.7703781 2.8062744 -2.9746222
v 6.7593145 2.7969928 -2.974653
l 1699 1700
v 6.7406082 2.3502245 -2.970243
v 6.7448764 2.3458819 -2.9698086
l 1701 1702
v 6.6777644 2.6422901 -2.9929364
v 6.6817746 2.6658821 -2.9901347
l 1703 1704
v 6.6756043 2.5806961 -2.9983571
v 6.6756358 2.5862274 -2.9979696
l 1705 1706
v 6.6756177 2.5830739 -2.9981904
v 6.6756043 2.5806961 -2.9983571
l 1707 1708
v 6.6756358 2.5862274 -2.9979696
v 6.6756177 2.5830739 -2.9981904
l 1709 1710
v 6.6757607 2.6083519 -2.9964197
v 6.6757922 2.6138833 -2.996032
l 1711 1712
v 6.6757426 2.6051297 -2.9966452
v 6.6757922 2.6138833 -2.996032
l 1713 1714
v 6.6757607 2.6083519 -2.9964197
v 6.6757426 2.6051297 -2.9966452
l 1715 1716
v 6.6757298 2.6028209 -2.9968071
v 6.6757922 2.6138833 -2.996032
l 1717 1718
v 6.6757426 2.6051297 -2.9966452
v 6.6757298 2.6028209 -2.9968071
l 1719 1720
v 6.6755433 2.5696337 -2.9991112
v 6.675561 2.5665114 -2.9988923
l 1721 1722
v 6.6755428 2.5697834 -2.9991217
v 6.6755433 2.5696337 -2.9991112
l 1723 1724
v 6.6755881 2.5617087 -2.9985559
v 6.6756063 2.5585713 -2.9983361
l 1725 1726
v 6.6756372 2.5530403 -2.9979486
v 6.675561 2.5665114 -2.9988923
l 1727 1728
v 6.6759825 2.5120823 -2.9951475
v 6.6765342 2.5039349 -2.9936664
l 1729 1730
v 6.6765342 2.5039349 -2.9936664
v 6.6770773 2.4959202 -2.9922094
l 1731 1732
v 6.6757312 2.5364466 -2.9967861
v 6.6757445 2.5341387 -2.9966245
l 1733 1734
v 6.6757131 2.5396528 -2.9970107
v 6.6757312 2.5364466 -2.9967861
l 1735 1736
v 6.6757131 2.5396528 -2.9970107
v 6.6756687 2.547509 -2.997561
l 1737 1738
v 6.675838 2.5175967 -2.9954655
v 6.675807 2.5231109 -2.9958518
l 1739 1740
v 6.6758251 2.5198531 -2.9956236
v 6.675838 2.5175967 -2.9954655
l 1741 1742
v 6.675807 2.5231109 -2.9958518
v 6.6758251 2.5198531 -2.9956236
l 1743 1744
v 6.6757941 2.5253842 -2.996011
v 6.6757627 2.5309155 -2.9963987
l 1745 1746
v 6.6757627 2.5309155 -2.9963987
v 6.6757755 2.5286248 -2.9962382
l 1747 1748
v 6.6757755 2.5286248 -2.9962382
v 6.6757941 2.5253842 -2.996011
l 1749 1750
v 6.675838 2.5175967 -2.9954655
v 6.6757627 2.5309155 -2.9963987
l 1751 1752
v 6.6838078 2.4556367 -2.9873536
v 6.6841984 2.4542725 -2.9870846
l 1753 1754
v 6.6819701 2.462323 -2.9877152
v 6.677619 2.4879205 -2.9907551
l 1755 1756
v 6.684866 2.4519417 -2.9866254
v 6.6841984 2.4542725 -2.9870846
l 1757 1758
v 6.6842599 2.4540575 -2.9870422
v 6.684866 2.4519417 -2.9866254
l 1759 1760
v 7.4843359 2.2903218 -3.0413949
v 7.4737506 2.2903218 -3.0412941
l 1761 1762
v 7.4562397 2.2903218 -3.0411272
v 7.4452085 2.2903218 -3.0410221
l 1763 1764
v 7.4055576 2.8378832 -3.0467913
v 7.4138279 2.8378832 -3.046921
l 1765 1766
v 7.7453923 2.2903218 -3.0689905
v 7.7413387 2.2903218 -3.0188165
l 1767 1768
v 7.7413387 2.2903218 -3.1191642
v 7.7453923 2.2903218 -3.0689905
l 1769 1770
v 8.0851068 2.3231642 -2.8924129
v 8.0867071 2.3244367 -2.8925879
l 1771 1772
v 7.7399068 2.2903218 -3.0130084
v 7.7413387 2.2903218 -3.0188165
l 1773 1774
v 7.7413387 2.2903218 -3.1191642
v 7.7296033 2.2903218 -3.1667709
l 1775 1776
v 7.7296033 2.2903218 -3.1667709
v 7.7108254 2.2903218 -3.2111707
l 1777 1778
v 7.6547008 2.2903218 -3.2877936
v 7.6856451 2.2903218 -3.2517247
l 1779 1780
v 7.7108254 2.2903218 -3.2111707
v 7.6856451 2.2903218 -3.2517247
l 1781 1782
v 7.7626314 2.8090045 -3.0309014
v 7.7801118 2.8165724 -3.0212924
l 1783 1784
v 7.7413387 2.8378832 -3.1191642
v 7.7453923 2.8378832 -3.0689905
l 1785 1786
v 7.7415218 2.8378832 -3.0210831
v 7.7453923 2.8378832 -3.0689905
l 1787 1788
v 7.7296033 2.8378832 -3.1667709
v 7.7108254 2.8378832 -3.2111707
l 1789 1790
v 7.7296033 2.8378832 -3.1667709
v 7.7413387 2.8378832 -3.1191642
l 1791 1792
v 7.6547008 2.2903218 -3.2877936
v 7.6186318 2.2903218 -3.318738
l 1793 1794
v 7.6186318 2.2903218 -3.318738
v 7.5780778 2.2903218 -3.3439186
l 1795 1796
v 7.1861501 2.2903218 -3.2517247
v 7.2170944 2.2903218 -3.2877936
l 1797 1798
v 7.1609693 2.2903218 -3.2111707
v 7.1861501 2.2903218 -3.2517247
l 1799 1800
v 7.2531633 2.2903218 -3.318738
v 7.2170944 2.2903218 -3.2877936
l 1801 1802
v 7.2531633 2.2903218 -3.318738
v 7.2937169 2.2903218 -3.3439186
l 1803 1804
v 7.4358974 2.2903218 -3.3784854
v 7.4860711 2.2903218 -3.3744316
l 1805 1806
v 7.4860711 2.2903218 -3.3744316
v 7.5336781 2.2903218 -3.3626962
l 1807 1808
v 7.5780778 2.2903218 -3.3439186
v 7.5336781 2.2903218 -3.3626962
l 1809 1810
v 7.5336781 2.8378832 -3.3626962
v 7.5780778 2.8378832 -3.3439186
l 1811 1812
v 7.4860711 2.8378832 -3.3744316
v 7.5336781 2.8378832 -3.3626962
l 1813 1814
v 7.4358974 2.8378832 -3.3784854
v 7.3857236 2.8378832 -3.3744316
l 1815 1816
v 7.4358974 2.8378832 -3.3784854
v 7.4860711 2.8378832 -3.3744316
l 1817 1818
v 7.4358974 2.2903218 -3.3784854
v 7.3857236 2.2903218 -3.3744316
l 1819 1820
v 7.3381171 2.2903218 -3.3626962
v 7.3857236 2.2903218 -3.3744316
l 1821 1822
v 7.2937169 2.2903218 -3.3439186
v 7.3381171 2.2903218 -3.3626962
l 1823 1824
v 7.2937169 2.8378832 -3.3439186
v 7.3381171 2.8378832 -3.3626962
l 1825 1826
v 7.3857236 2.8378832 -3.3744316
v 7.3381171 2.8378832 -3.3626962
l 1827 1828
v 7.2937169 2.8378832 -3.3439186
v 7.2531633 2.8378832 -3.318738
l 1829 1830
v 7.2531633 2.8378832 -3.318738
v 7.2170944 2.8378832 -3.2877936
l 1831 1832
v 7.1421919 2.2903218 -3.1667709
v 7.1304564 2.2903218 -3.1191642
l 1833 1834
v 7.1421919 2.2903218 -3.1667709
v 7.1609693 2.2903218 -3.2111707
l 1835 1836
v 7.1297746 2.2903218 -3.0272541
v 7.1264024 2.2903218 -3.0689905
l 1837 1838
v 7.1264024 2.2903218 -3.0689905
v 7.1304564 2.2903218 -3.1191642
l 1839 1840
v 6.9999433 2.2877076 -3.0084214
v 7.0155048 2.2901592 -3.012995
l 1841 1842
v 6.7587171 2.3321643 -2.9680057
v 6.7703781 2.3224742 -2.9666018
l 1843 1844
v 6.6838078 2.4556367 -2.9873536
v 6.6842599 2.4540575 -2.9870422
l 1845 1846
v 7.1609693 2.8378832 -3.2111707
v 7.1861501 2.8378832 -3.2517247
l 1847 1848
v 7.2170944 2.8378832 -3.2877936
v 7.1861501 2.8378832 -3.2517247
l 1849 1850
v 7.1609693 2.8378832 -3.2111707
v 7.1421919 2.8378832 -3.1667709
l 1851 1852
v 7.1421919 2.8378832 -3.1667709
v 7.1304564 2.8378832 -3.1191642
l 1853 1854
v 6.6868815 2.6844225 -2.988987
v 6.684866 2.67713 -2.989526
l 1855 1856
v 6.7121091 2.7403948 -2.9819002
v 6.7131524 2.7420032 -2.9818037
l 1857 1858
v 7.1291847 2.8378832 -3.0345554
v 7.1264024 2.8378832 -3.0689905
l 1859 1860
v 7.1304564 2.8378832 -3.1191642
v 7.1264024 2.8378832 -3.0689905
l 1861 1862
v 7.6186318 2.8378832 -3.318738
v 7.5780778 2.8378832 -3.3439186
l 1863 1864
v 7.6186318 2.8378832 -3.318738
v 7.6547008 2.8378832 -3.2877936
l 1865 1866
v 7.6856451 2.8378832 -3.2517247
v 7.7108254 2.8378832 -3.2111707
l 1867 1868
v 7.6547008 2.8378832 -3.2877936
v 7.6856451 2.8378832 -3.2517247
l 1869 1870
v 7.3857236 -2.2903218 -3.3744316
v 7.3381171 -2.2903218 -3.3626962
l 1871 1872
v 7.4358974 -2.2903218 -3.3784854
v 7.3857236 -2.2903218 -3.3744316
l 1873 1874
v 7.4358974 -2.2903218 -3.3784854
v 7.4860711 -2.2903218 -3.3744316
l 1875 1876
v 7.4860711 -2.2903218 -3.3744316
v 7.5336781 -2.2903218 -3.3626962
l 1877 1878
v 7.7399068 -2.2903218 -3.0130084
v 7.7413387 -2.2903218 -3.0188165
l 1879 1880
v 8.0867071 -2.3244367 -2.8925879
v 8.0851068 -2.3231642 -2.8924129
l 1881 1882
v 8.1664343 -2.7087457 -2.9216087
v 8.164073 -2.714092 -2.9206164
l 1883 1884
v 7.7413387 -2.2903218 -3.1191642
v 7.7453923 -2.2903218 -3.0689905
l 1885 1886
v 7.7413387 -2.2903218 -3.0188165
v 7.7453923 -2.2903218 -3.0689905
l 1887 1888
v 7.6186318 -2.2903218 -3.318738
v 7.5780778 -2.2903218 -3.3439186
l 1889 1890
v 7.6186318 -2.2903218 -3.318738
v 7.6547008 -2.2903218 -3.2877936
l 1891 1892
v 7.6547008 -2.2903218 -3.2877936
v 7.6856451 -2.2903218 -3.2517247
l 1893 1894
v 7.6856451 -2.2903218 -3.2517247
v 7.7108254 -2.2903218 -3.2111707
l 1895 1896
v 7.7108254 -2.2903218 -3.2111707
v 7.7296033 -2.2903218 -3.1667709
l 1897 1898
v 7.7296033 -2.2903218 -3.1667709
v 7.7413387 -2.2903218 -3.1191642
l 1899 1900
v 7.7413387 -2.8378832 -3.1191642
v 7.7296033 -2.8378832 -3.1667709
l 1901 1902
v 7.7296033 -2.8378832 -3.1667709
v 7.7108254 -2.8378832 -3.2111707
l 1903 1904
v 7.6547008 -2.8378832 -3.2877936
v 7.6856451 -2.8378832 -3.2517247
l 1905 1906
v 7.7108254 -2.8378832 -3.2111707
v 7.6856451 -2.8378832 -3.2517247
l 1907 1908
v 7.5336781 -2.2903218 -3.3626962
v 7.5780778 -2.2903218 -3.3439186
l 1909 1910
v 7.2937169 -2.2903218 -3.3439186
v 7.3381171 -2.2903218 -3.3626962
l 1911 1912
v 7.2937169 -2.2903218 -3.3439186
v 7.2531633 -2.2903218 -3.318738
l 1913 1914
v 7.2170944 -2.2903218 -3.2877936
v 7.1861501 -2.2903218 -3.2517247
l 1915 1916
v 7.2531633 -2.2903218 -3.318738
v 7.2170944 -2.2903218 -3.2877936
l 1917 1918
v 7.6547008 -2.8378832 -3.2877936
v 7.6186318 -2.8378832 -3.318738
l 1919 1920
v 7.6186318 -2.8378832 -3.318738
v 7.5780778 -2.8378832 -3.3439186
l 1921 1922
v 7.4860711 -2.8378832 -3.3744316
v 7.5336781 -2.8378832 -3.3626962
l 1923 1924
v 7.5780778 -2.8378832 -3.3439186
v 7.5336781 -2.8378832 -3.3626962
l 1925 1926
v 7.1609693 -2.2903218 -3.2111707
v 7.1861501 -2.2903218 -3.2517247
l 1927 1928
v 7.1421919 -2.2903218 -3.1667709
v 7.1609693 -2.2903218 -3.2111707
l 1929 1930
v 7.1421919 -2.2903218 -3.1667709
v 7.1304564 -2.2903218 -3.1191642
l 1931 1932
v 24.074301 4.6250199e-17 2.7225361
v 23.899271 0 2.1538494
l 1933 1934
v 7.1304564 -2.2903218 -3.1191642
v 7.1264024 -2.2903218 -3.0689905
l 1935 1936
v 7.4860711 -2.8378832 -3.3744316
v 7.4358974 -2.8378832 -3.3784854
l 1937 1938
v 7.4358974 -2.8378832 -3.3784854
v 7.3857236 -2.8378832 -3.3744316
l 1939 1940
v 7.3381171 -2.8378832 -3.3626962
v 7.3857236 -2.8378832 -3.3744316
l 1941 1942
v 7.2937169 -2.8378832 -3.3439186
v 7.3381171 -2.8378832 -3.3626962
l 1943 1944
v 7.2531633 -2.8378832 -3.318738
v 7.2170944 -2.8378832 -3.2877936
l 1945 1946
v 7.2531633 -2.8378832 -3.318738
v 7.2937169 -2.8378832 -3.3439186
l 1947 1948
v 7.1861501 -2.8378832 -3.2517247
v 7.2170944 -2.8378832 -3.2877936
l 1949 1950
v 7.1609693 -2.8378832 -3.2111707
v 7.1861501 -2.8378832 -3.2517247
l 1951 1952
v 7.1421919 -2.8378832 -3.1667709
v 7.1304564 -2.8378832 -3.1191642
l 1953 1954
v 7.1421919 -2.8378832 -3.1667709
v 7.1609693 -2.8378832 -3.2111707
l 1955 1956
v 7.1291847 -2.8378832 -3.0345554
v 7.1264024 -2.8378832 -3.0689905
l 1957 1958
v 7.1264024 -2.8378832 -3.0689905
v 7.1304564 -2.8378832 -3.1191642
l 1959 1960
v 6.8904586 -2.8405347 -2.9927528
v 6.9024382 -2.8418481 -2.9951792
l 1961 1962
v 6.7956357 -2.8181381 -2.9769664
v 6.8014317 -2.8200915 -2.9780517
l 1963 1964
v 6.7564034 -2.7945504 -2.9746611
v 6.7422051 -2.7801049 -2.9761062
l 1965 1966
v 6.7121091 -2.7403948 -2.9819002
v 6.7131524 -2.7420032 -2.9818037
l 1967 1968
v 6.684866 -2.67713 -2.989526
v 6.6868815 -2.6844225 -2.988987
l 1969 1970
v 6.6774235 -2.6402845 -2.9931746
v 6.6790729 -2.6499875 -2.9920223
l 1971 1972
v 7.7413387 -2.8378832 -3.1191642
v 7.7453923 -2.8378832 -3.0689905
l 1973 1974
v 7.7453923 -2.8378832 -3.0689905
v 7.7415218 -2.8378832 -3.0210831
l 1975 1976
v 7.7801118 -2.8165724 -3.0212924
v 7.7626314 -2.8090045 -3.0309014
l 1977 1978
v 23.910627 0.28547397 1.7934426
v 23.853264 0.93344498 1.7934426
l 1979 1980
v 23.910627 -0.28547397 1.7934426
v 23.853264 -0.93344498 1.7934426
l 1981 1982
v 23.853264 -0.93344498 1.7934426
v 23.770628 -1.86689 1.7934426
l 1983 1984
v 23.770628 -1.86689 1.7934426
v 23.687992 -2.8003349 1.7934426
l 1985 1986
v 23.687992 -2.8003349 1.7934426
v 23.605356 -3.7337799 1.7934426
l 1987 1988
v 23.605356 -3.7337799 1.7934426
v 23.52272 -4.6672249 1.7934426
l 1989 1990
v 23.491167 -4.6672249 1.7970959
v 23.52272 -4.6672249 1.7934426
l 1991 1992
v 23.491167 -4.6672249 1.7897893
v 23.52272 -4.6672249 1.7934426
l 1993 1994
v 23.491167 -4.6672249 1.7970959
v 23.44581 -4.6672249 1.8022225
l 1995 1996
v 23.381954 -4.6672249 1.8091977
v 23.44581 -4.6672249 1.8022225
l 1997 1998
v 23.770628 1.86689 1.7934426
v 23.687992 2.8003349 1.7934426
l 1999 2000
v 23.853264 0.93344498 1.7934426
v 23.770628 1.86689 1.7934426
l 2001 2002
v 23.44581 4.6672249 1.7846627
v 23.491167 4.6672249 1.7897893
l 2003 2004
v 23.44581 4.6672249 1.7846627
v 23.381954 4.6672249 1.7776875
l 2005 2006
v 23.381954 4.6672249 1.8091977
v 23.44581 4.6672249 1.8022225
l 2007 2008
v 23.44581 4.6672249 1.8022225
v 23.491167 4.6672249 1.7970959
l 2009 2010
v 23.52272 4.6672249 1.7934426
v 23.491167 4.6672249 1.7970959
l 2011 2012
v 23.605356 3.7337799 1.7934426
v 23.52272 4.6672249 1.7934426
l 2013 2014
v 23.52272 4.6672249 1.7934426
v 23.491167 4.6672249 1.7897893
l 2015 2016
v 23.687992 2.8003349 1.7934426
v 23.605356 3.7337799 1.7934426
l 2017 2018
v 23.381954 4.6672249 1.8091977
v 23.294647 4.6672249 1.8182948
l 2019 2020
v 23.294647 4.6672249 1.8182948
v 23.179922 4.6672249 1.8294982
l 2021 2022
v 23.179922 4.6672249 1.8294982
v 23.036797 4.6672249 1.8422576
l 2023 2024
v 22.86936 4.6672249 1.8552961
v 23.036797 4.6672249 1.8422576
l 2025 2026
v 22.86936 4.6672249 1.8552961
v 22.687601 4.6672249 1.8666404
l 2027 2028
v 23.294647 -4.6672249 1.8182948
v 23.381954 -4.6672249 1.8091977
l 2029 2030
v 23.179922 -4.6672249 1.8294982
v 23.294647 -4.6672249 1.8182948
l 2031 2032
v 23.294647 -4.6672249 1.7685906
v 23.381954 -4.6672249 1.7776875
l 2033 2034
v 23.179922 -4.6672249 1.757387
v 23.294647 -4.6672249 1.7685906
l 2035 2036
v 22.337715 -4.6672249 1.7108743
v 22.194084 -4.6672249 1.7147547
l 2037 2038
v 22.194084 -4.6672249 1.7147547
v 22.079165 -4.6672249 1.7235498
l 2039 2040
v 22.194084 -4.6672249 1.8721305
v 22.079165 -4.6672249 1.8633354
l 2041 2042
v 22.337715 -4.6672249 1.8760109
v 22.194084 -4.6672249 1.8721305
l 2043 2044
v 22.337715 -4.6672249 1.8760109
v 22.505642 -4.6672249 1.8740793
l 2045 2046
v 22.86936 -4.6672249 1.8552961
v 23.036797 -4.6672249 1.8422576
l 2047 2048
v 23.036797 -4.6672249 1.8422576
v 23.179922 -4.6672249 1.8294982
l 2049 2050
v 23.036797 -4.6672249 1.7446276
v 23.179922 -4.6672249 1.757387
l 2051 2052
v 23.036797 -4.6672249 1.7446276
v 22.86936 -4.6672249 1.7315891
l 2053 2054
v 22.687601 -4.6672249 1.7202449
v 22.86936 -4.6672249 1.7315891
l 2055 2056
v 22.687601 -4.6672249 1.7202449
v 22.505642 -4.6672249 1.712806
l 2057 2058
v 22.505642 -4.6672249 1.712806
v 22.337715 -4.6672249 1.7108743
l 2059 2060
v 22.687601 -4.6672249 1.8666404
v 22.505642 -4.6672249 1.8740793
l 2061 2062
v 22.86936 -4.6672249 1.8552961
v 22.687601 -4.6672249 1.8666404
l 2063 2064
v 21.992275 -4.6672249 1.8509947
v 22.079165 -4.6672249 1.8633354
l 2065 2066
v 21.992275 -4.6672249 1.8509947
v 21.929844 -4.6672249 1.8360448
l 2067 2068
v 21.88806 -4.6672249 1.7689005
v 21.929844 -4.6672249 1.7508404
l 2069 2070
v 21.992275 -4.6672249 1.7358905
v 21.929844 -4.6672249 1.7508404
l 2071 2072
v 21.88806 -4.6672249 1.7689005
v 21.888962 -3.7337799 1.7676734
l 2073 2074
v 21.889864 -2.8003349 1.7664462
v 21.888962 -3.7337799 1.7676734
l 2075 2076
v 21.870001 -4.6672249 1.7934426
v 21.870001 -3.7337799 1.7934426
l 2077 2078
v 21.88806 -4.6672249 1.7689005
v 21.870001 -4.6672249 1.7934426
l 2079 2080
v 21.88806 -4.6672249 1.8179848
v 21.870001 -4.6672249 1.7934426
l 2081 2082
v 21.88806 -4.6672249 1.8179848
v 21.888962 -3.7337799 1.8192118
l 2083 2084
v 21.888962 -3.7337799 1.8192118
v 21.889864 -2.8003349 1.820439
l 2085 2086
v 22.505642 4.6672249 1.8740793
v 22.337715 4.6672249 1.8760109
l 2087 2088
v 22.505642 4.6672249 1.8740793
v 22.687601 4.6672249 1.8666404
l 2089 2090
v 22.337715 4.6672249 1.7108743
v 22.194084 4.6672249 1.7147547
l 2091 2092
v 22.079165 4.6672249 1.7235498
v 22.194084 4.6672249 1.7147547
l 2093 2094
v 21.992275 4.6672249 1.7358905
v 22.079165 4.6672249 1.7235498
l 2095 2096
v 21.992275 4.6672249 1.8509947
v 22.079165 4.6672249 1.8633354
l 2097 2098
v 21.929844 4.6672249 1.8360448
v 21.992275 4.6672249 1.8509947
l 2099 2100
v 21.889864 2.8003349 1.820439
v 21.890768 1.86689 1.8216661
l 2101 2102
v 21.870001 3.7337799 1.7934426
v 21.870001 2.8003349 1.7934426
l 2103 2104
v 21.888962 3.7337799 1.8192118
v 21.889864 2.8003349 1.820439
l 2105 2106
v 21.870001 4.6672249 1.7934426
v 21.870001 3.7337799 1.7934426
l 2107 2108
v 21.88806 4.6672249 1.8179848
v 21.888962 3.7337799 1.8192118
l 2109 2110
v 21.88806 4.6672249 1.8179848
v 21.870001 4.6672249 1.7934426
l 2111 2112
v 21.88806 4.6672249 1.8179848
v 21.929844 4.6672249 1.8360448
l 2113 2114
v 21.88806 4.6672249 1.7689005
v 21.870001 4.6672249 1.7934426
l 2115 2116
v 21.888962 3.7337799 1.7676734
v 21.88806 4.6672249 1.7689005
l 2117 2118
v 21.88806 4.6672249 1.7689005
v 21.929844 4.6672249 1.7508404
l 2119 2120
v 21.889864 2.8003349 1.7664462
v 21.888962 3.7337799 1.7676734
l 2121 2122
v 21.890768 1.86689 1.7652191
v 21.889864 2.8003349 1.7664462
l 2123 2124
v 21.89167 0.93344498 1.7639921
v 21.890768 1.86689 1.7652191
l 2125 2126
v 21.870001 1.86689 1.7934426
v 21.870001 2.8003349 1.7934426
l 2127 2128
v 21.870001 0.93344498 1.7934426
v 21.870001 1.86689 1.7934426
l 2129 2130
v 21.89167 0.93344498 1.8228931
v 21.890768 1.86689 1.8216661
l 2131 2132
v 21.891893 0.70340538 1.8231956
v 21.89167 0.93344498 1.8228931
l 2133 2134
v 21.891893 -0.70340538 1.8231956
v 21.89167 -0.93344498 1.8228931
l 2135 2136
v 21.89167 -0.93344498 1.8228931
v 21.890768 -1.86689 1.8216661
l 2137 2138
v 21.870001 -1.86689 1.7934426
v 21.870001 -2.8003349 1.7934426
l 2139 2140
v 21.890768 -1.86689 1.8216661
v 21.889864 -2.8003349 1.820439
l 2141 2142
v 21.890768 -1.86689 1.7652191
v 21.889864 -2.8003349 1.7664462
l 2143 2144
v 21.870001 -3.7337799 1.7934426
v 21.870001 -2.8003349 1.7934426
l 2145 2146
v 21.89167 -0.93344498 1.7639921
v 21.890768 -1.86689 1.7652191
l 2147 2148
v 22.079165 -4.6672249 1.7235498
v 21.992275 -4.6672249 1.7358905
l 2149 2150
v 21.929844 4.6672249 1.7508404
v 21.992275 4.6672249 1.7358905
l 2151 2152
v 21.891897 0.69874752 1.7636836
v 21.89167 0.93344498 1.7639921
l 2153 2154
v 21.89167 -0.93344498 1.7639921
v 21.891897 -0.69874752 1.7636836
l 2155 2156
v 21.870001 0.70248783 1.7934426
v 21.870001 0.93344498 1.7934426
l 2157 2158
v 21.870001 -0.93344498 1.7934426
v 21.870001 -0.70248783 1.7934426
l 2159 2160
v 21.870001 -1.86689 1.7934426
v 21.870001 -0.93344498 1.7934426
l 2161 2162
v 22.337715 4.6672249 1.7108743
v 22.505642 4.6672249 1.712806
l 2163 2164
v 22.505642 4.6672249 1.712806
v 22.687601 4.6672249 1.7202449
l 2165 2166
v 22.86936 4.6672249 1.7315891
v 22.687601 4.6672249 1.7202449
l 2167 2168
v 23.036797 4.6672249 1.7446276
v 22.86936 4.6672249 1.7315891
l 2169 2170
v 23.44581 -4.6672249 1.7846627
v 23.381954 -4.6672249 1.7776875
l 2171 2172
v 23.44581 -4.6672249 1.7846627
v 23.491167 -4.6672249 1.7897893
l 2173 2174
v 23.179922 4.6672249 1.757387
v 23.294647 4.6672249 1.7685906
l 2175 2176
v 23.179922 4.6672249 1.757387
v 23.036797 4.6672249 1.7446276
l 2177 2178
v 23.294647 4.6672249 1.7685906
v 23.381954 4.6672249 1.7776875
l 2179 2180
v 22.194084 4.6672249 1.8721305
v 22.079165 4.6672249 1.8633354
l 2181 2182
v 22.194084 4.6672249 1.8721305
v 22.337715 4.6672249 1.8760109
l 2183 2184
v 21.88806 -4.6672249 1.8179848
v 21.929844 -4.6672249 1.8360448
l 2185 2186
v 2.8631768 0 -2.6963432
v 2.9431834 1.3357151e-17 -2.5148513
l 2187 2188
v 7.1264024 -2.2903218 -3.0689905
v 7.129703 -2.2915072 -3.0281417
l 2189 2190
v 2.6314542 -0.19371921 -3.3704941
v 2.6323986 -0.19371921 -3.3704557
l 2191 2192
v 2.6295722 -0.19371921 -3.3705709
v 2.6314542 -0.19371921 -3.3704941
l 2193 2194
v 2.6484039 -0.19371921 -3.369642
v 2.6549935 -0.19371921 -3.3689349
l 2195 2196
v 2.6459937 -0.19371921 -3.3699007
v 2.6484039 -0.19371921 -3.369642
l 2197 2198
v 2.6484039 0.19371921 -3.369642
v 2.6459937 0.19371921 -3.3699007
l 2199 2200
v 2.6549935 0.19371921 -3.3689349
v 2.6484039 0.19371921 -3.369642
l 2201 2202
v 2.6295722 0.19371921 -3.3705709
v 2.6323986 0.19371921 -3.3704557
l 2203 2204
v 2.6323986 0.19371921 -3.3704557
v 2.6314542 0.19371921 -3.3704941
l 2205 2206
v 2.6314542 0.19371921 -3.3704941
v 2.6295722 0.19371921 -3.3705709
l 2207 2208
v 2.573314 0.19371921 -3.3704674
v 2.5812666 0.19371921 -3.3705029
l 2209 2210
v 2.573314 0.19371921 -3.3704674
v 2.5713849 0.19371921 -3.3704588
l 2211 2212
v 2.6174223 0.19371921 -3.3705561
v 2.6145399 0.19371921 -3.3705525
l 2213 2214
v 2.6145399 0.19371921 -3.3705525
v 2.6101718 0.19371921 -3.3705473
l 2215 2216
v 2.521482 0.19371921 -3.3701556
v 2.5331848 0.19371921 -3.3702598
l 2217 2218
v 2.5315802 0.19371921 -3.3702455
v 2.521482 0.19371921 -3.3701556
l 2219 2220
v 2.5331848 0.19371921 -3.3702598
v 2.5315802 0.19371921 -3.3702455
l 2221 2222
v 2.4698224 -0.19371921 -3.3695412
v 2.4755728 -0.19371921 -3.3696256
l 2223 2224
v 2.4755728 -0.19371921 -3.3696256
v 2.4801853 -0.19371921 -3.3696933
l 2225 2226
v 2.5315802 -0.19371921 -3.3702455
v 2.5124691 -0.19371921 -3.3700752
l 2227 2228
v 2.5315802 -0.19371921 -3.3702455
v 2.5331848 -0.19371921 -3.3702598
l 2229 2230
v 2.6295722 -0.19371921 -3.3705709
v 2.6225362 -0.19371921 -3.3705623
l 2231 2232
v 2.6174223 -0.19371921 -3.3705561
v 2.6101718 -0.19371921 -3.3705473
l 2233 2234
v 2.6101718 -0.19371921 -3.3705473
v 2.6145399 -0.19371921 -3.3705525
l 2235 2236
v 2.6145399 -0.19371921 -3.3705525
v 2.6174223 -0.19371921 -3.3705561
l 2237 2238
v 2.6295722 -0.19371921 -3.3705709
v 2.6174223 -0.19371921 -3.3705561
l 2239 2240
v 2.6174223 -0.19371921 -3.3705561
v 2.6225362 -0.19371921 -3.3705623
l 2241 2242
v 7.6039848 -2.2903218 -3.0413792
v 7.5959139 -2.2903218 -3.0417316
l 2243 2244
v 7.6053524 -2.2903218 -3.0413196
v 7.6039848 -2.2903218 -3.0413792
l 2245 2246
v 7.4996357 -2.8378832 -3.0477707
v 7.5001726 -2.8378832 -3.0477734
l 2247 2248
v 7.49508 -2.8378832 -3.047749
v 7.4996357 -2.8378832 -3.0477707
l 2249 2250
v 7.5001726 -2.8378832 -3.0477734
v 7.5012927 -2.8378832 -3.0477786
l 2251 2252
v 7.5012927 -2.8378832 -3.0477786
v 7.5177522 -2.8378832 -3.047857
l 2253 2254
v 7.4772015 -2.8378832 -3.0476298
v 7.4828672 -2.8378832 -3.0476837
l 2255 2256
v 7.4828672 -2.8378832 -3.0476837
v 7.4843359 -2.8378832 -3.0476978
l 2257 2258
v 7.4645152 -2.8378832 -3.047509
v 7.4574461 -2.8378832 -3.0474415
l 2259 2260
v 7.4574461 -2.8378832 -3.0474415
v 7.4626217 -2.8378832 -3.0474908
l 2261 2262
v 7.4626217 -2.8378832 -3.0474908
v 7.4645152 -2.8378832 -3.047509
l 2263 2264
v 7.3988051 -2.8378832 -3.0466852
v 7.4055576 -2.8378832 -3.0467913
l 2265 2266
v 7.3925776 -2.8378832 -3.0465875
v 7.3988051 -2.8378832 -3.0466852
l 2267 2268
v 7.4097176 -2.8378832 -3.0468566
v 7.4055576 -2.8378832 -3.0467913
l 2269 2270
v 7.4055576 -2.8378832 -3.0467913
v 7.406765 -2.8378832 -3.0468102
l 2271 2272
v 7.406765 -2.8378832 -3.0468102
v 7.4097176 -2.8378832 -3.0468566
l 2273 2274
v 7.4358974 -2.8378832 -3.0472362
v 7.4394655 -2.8378832 -3.0472703
l 2275 2276
v 7.4323182 -2.8378832 -3.0472021
v 7.4358974 -2.8378832 -3.0472362
l 2277 2278
v 7.2660556 -2.8378832 -3.0429997
v 7.2685037 -2.8378832 -3.0431075
l 2279 2280
v 7.2389865 -2.8378832 -3.0418096
v 7.2660556 -2.8378832 -3.0429997
l 2281 2282
v 7.426518 -2.2903218 -3.0408175
v 7.4212852 -2.2903218 -3.0407352
l 2283 2284
v 7.4212852 -2.2903218 -3.0407352
v 7.4165277 -2.2903218 -3.0406606
l 2285 2286
v 7.415391 -2.2903218 -3.0406427
v 7.4151535 -2.2903218 -3.0406389
l 2287 2288
v 7.4151535 -2.2903218 -3.0406389
v 7.4094281 -2.2903218 -3.040549
l 2289 2290
v 7.4165277 -2.2903218 -3.0406606
v 7.415391 -2.2903218 -3.0406427
l 2291 2292
v 7.4094281 -2.2903218 -3.040549
v 7.4074244 -2.2903218 -3.0405178
l 2293 2294
v 7.3923645 -2.2903218 -3.0402813
v 7.4020648 -2.2903218 -3.0404336
l 2295 2296
v 7.4020648 -2.2903218 -3.0404336
v 7.3967543 -2.2903218 -3.0403502
l 2297 2298
v 7.3967543 -2.2903218 -3.0403502
v 7.3923645 -2.2903218 -3.0402813
l 2299 2300
v 7.4452085 -2.2903218 -3.0410221
v 7.4404993 -2.2903218 -3.0409772
l 2301 2302
v 7.4503365 -2.2903218 -3.0410709
v 7.4452085 -2.2903218 -3.0410221
l 2303 2304
v 7.4562397 -2.2903218 -3.0411272
v 7.4560146 -2.2903218 -3.0411251
l 2305 2306
v 7.4560146 -2.2903218 -3.0411251
v 7.4503365 -2.2903218 -3.0410709
l 2307 2308
v 7.4987135 -2.2903218 -3.0414634
v 7.5183005 -2.2903218 -3.0415568
l 2309 2310
v 7.489213 -2.2903218 -3.0414181
v 7.4851947 -2.2903218 -3.041399
l 2311 2312
v 7.4914546 -2.2903218 -3.0414288
v 7.489213 -2.2903218 -3.0414181
l 2313 2314
v 7.4987135 -2.2903218 -3.0414634
v 7.4914546 -2.2903218 -3.0414288
l 2315 2316
v 7.2006369 -2.2903218 -3.0328457
v 7.1981125 -2.2903218 -3.0326879
l 2317 2318
v 7.225235 -2.2903218 -3.0343854
v 7.2006369 -2.2903218 -3.0328457
l 2319 2320
v 7.2324462 -2.2903218 -3.0348272
v 7.2673435 -2.2903218 -3.0365081
l 2321 2322
v 7.2673435 -2.2903218 -3.0365081
v 7.2628307 -2.2903218 -3.0362906
l 2323 2324
v 7.2628307 -2.2903218 -3.0362906
v 7.2324462 -2.2903218 -3.0348272
l 2325 2326
v 7.140594 -2.8378832 -3.035584
v 7.1410089 -2.8378832 -3.0356214
l 2327 2328
v 7.1291847 -2.8378832 -3.0345554
v 7.140594 -2.8378832 -3.035584
l 2329 2330
v 7.7082324 2.2903218 -3.0223992
v 7.7205434 2.2903218 -3.019006
l 2331 2332
v 7.7069941 2.2903218 -3.0227406
v 7.7082324 2.2903218 -3.0223992
l 2333 2334
v 7.6295004 2.2903218 -3.0393262
v 7.6368098 2.2903218 -3.0384073
l 2335 2336
v 7.6368098 2.2903218 -3.0384073
v 7.6390934 2.2903218 -3.0381203
l 2337 2338
v 7.6039848 2.2903218 -3.0413792
v 7.6053524 2.2903218 -3.0413196
l 2339 2340
v 7.5959139 2.2903218 -3.0417316
v 7.6039848 2.2903218 -3.0413792
l 2341 2342
v 7.4720888 2.8378832 -3.047581
v 7.4828672 2.8378832 -3.0476837
l 2343 2344
v 7.4720888 2.8378832 -3.047581
v 7.4652472 2.8378832 -3.0475159
l 2345 2346
v 7.5177522 2.8378832 -3.047857
v 7.5012927 2.8378832 -3.0477786
l 2347 2348
v 7.5366464 2.8378832 -3.0479472
v 7.5177522 2.8378832 -3.047857
l 2349 2350
v 7.3800087 2.2903218 -3.0400875
v 7.3923645 2.2903218 -3.0402813
l 2351 2352
v 7.3923645 2.2903218 -3.0402813
v 7.3967543 2.2903218 -3.0403502
l 2353 2354
v 7.4074244 2.2903218 -3.0405178
v 7.4094281 2.2903218 -3.040549
l 2355 2356
v 7.4094281 2.2903218 -3.040549
v 7.4151535 2.2903218 -3.0406389
l 2357 2358
v 7.3737216 2.2903218 -3.0399492
v 7.3784614 2.2903218 -3.04006
l 2359 2360
v 7.3784614 2.2903218 -3.04006
v 7.3788443 2.2903218 -3.0400691
l 2361 2362
v 7.3470931 2.2903218 -3.039326
v 7.3628535 2.2903218 -3.0396948
l 2363 2364
v 7.3628535 2.2903218 -3.0396948
v 7.3737216 2.2903218 -3.0399492
l 2365 2366
v 7.2784963 2.2903218 -3.0370452
v 7.2628307 2.2903218 -3.0362906
l 2367 2368
v 7.2324462 2.2903218 -3.0348272
v 7.2628307 2.2903218 -3.0362906
l 2369 2370
v 7.2660556 2.8378832 -3.0429997
v 7.2389865 2.8378832 -3.0418096
l 2371 2372
v 7.2685037 2.8378832 -3.0431075
v 7.2660556 2.8378832 -3.0429997
l 2373 2374
v 7.1830373 2.2903218 -3.0316999
v 7.1639266 2.2903218 -3.0301828
l 2375 2376
v 7.1410089 2.2903218 -3.0283637
v 7.1639266 2.2903218 -3.0301828
l 2377 2378
v 7.1981125 2.2903218 -3.0326879
v 7.2006369 2.2903218 -3.0328457
l 2379 2380
v 7.2006369 2.2903218 -3.0328457
v 7.225235 2.2903218 -3.0343854
l 2381 2382
v 7.4783673 2.2903218 -3.041338
v 7.4843359 2.2903218 -3.0413949
l 2383 2384
v 7.4737506 2.2903218 -3.0412941
v 7.4783673 2.2903218 -3.041338
l 2385 2386
v 7.4503365 2.2903218 -3.0410709
v 7.4560146 2.2903218 -3.0411251
l 2387 2388
v 7.4452085 2.2903218 -3.0410221
v 7.4503365 2.2903218 -3.0410709
l 2389 2390
v 7.4560146 2.2903218 -3.0411251
v 7.4562397 2.2903218 -3.0411272
l 2391 2392
v 7.406765 2.8378832 -3.0468102
v 7.4138279 2.8378832 -3.046921
l 2393 2394
v 7.406765 2.8378832 -3.0468102
v 7.4055576 2.8378832 -3.0467913
l 2395 2396
