v 3.0569651 0.062032789 -1.1483231
v 3.0525246 0.050018806 -1.1481005
v 21.94256 -0.69988477 1.8450983
v 22.01829 -0.69535881 1.8632392
v 22.01829 0.69535881 1.8632392
v 21.94256 0.69988477 1.8450983
v 2.7065079 -0.081535831 -2.6650388
v 2.7246332 -0.074774086 -2.6673491
v 2.7596302 0.17917345 -3.354898
v 2.7602158 0.18877688 -3.349401
v 2.7597566 0.18036631 -3.3541996
v 2.7597826 0.18066595 -3.3540261
v 2.759846 0.18156822 -3.353507
v 2.7598271 -0.18126692 -3.3536797
v 2.7705235 -0.21459715 -3.3289092
v 2.770874 -0.2151632 -3.3283708
v 2.4578767 0.19240263 -3.370096
v 2.4590225 0.18491729 -3.3742654
v 2.4594374 0.18220849 -3.3757741
v 2.4461439 0.21338131 -3.357713
v 2.4456532 0.21459715 -3.3567836
v 2.4599974 -0.17917345 -3.3774662
v 2.4588153 -0.18627168 -3.3735111
v 2.4590225 -0.18491729 -3.3742654
v 2.4592299 -0.18356289 -3.3750198
v 2.4461439 -0.21338131 -3.357713
v 2.4456532 -0.21459715 -3.3567836
v 2.1636953 0.018594321 -3.4047816
v 2.1637769 0.0063522402 -3.40569
v 2.1636953 -0.018594321 -3.4047816
v 2.1635759 -0.036521066 -3.4034514
v 7.4799113 2.4186418 -2.1162827
v 7.4843359 2.4202156 -2.1156428
v 7.4799113 -2.4186418 -2.1162827
v 7.4843359 -2.4202156 -2.1156428
v 7.6084743 -2.5456393 -2.095453
v 7.5959139 -2.5516555 -2.0945303
v 8.1656818 -2.4203622 -2.9171088
v 7.741365 -2.2990477 -3.0191424
v 7.7224479 -2.3409188 -3.0483062
v 7.7229457 -2.7872863 -3.0544682
v 7.1485691 -2.3409188 -3.057935
v 7.1480627 -2.7872863 -3.0642011
v 7.1288223 -2.8297348 -3.0390429
v 6.6755881 -2.5617087 -2.9985559
v 6.675561 -2.5665114 -2.9988923
v 6.6757002 -2.5419779 -2.9971735
v 7.7420373 2.826236 -3.0274627
v 7.7417183 2.8335156 -3.0235145
v 7.7229457 2.7872863 -3.0544682
v 7.741365 2.2990477 -3.0191424
v 7.1441255 2.7900586 -3.0623779
v 7.1480627 2.7872863 -3.0642011
v 6.6757002 2.5419779 -2.9971735
