v 3.0458221 1.0175922e-16 -1.1477686
v 3.5262115 0.0038859523 -1.1703254
v 3.5314224 1.0036514e-16 -1.1705358
v 10.192677 0.96266973 -0.66577727
v 10.192677 -0.97184181 -0.66497487
v 20.80686 -0.084893748 2.5317965
v 20.864275 -0.10041995 2.5268509
v 20.821533 -0.089504063 2.5304189
v 20.683043 9.3873646e-19 2.5413785
v 20.723854 0.051920298 2.536773
v 20.702188 0.036705554 2.5384965
v 20.687616 0.019165859 2.5400827
v 20.893751 0.10660678 2.5246277
v 20.913269 0.11068891 2.5232377
v 21.462719 -0.15878941 2.4985359
v 21.360802 -0.15528578 2.5020857
v 21.180557 0.14438218 2.5091448
v 21.360802 0.15528578 2.5020857
v 21.879362 0.70314276 1.8061647
v 21.870001 0.70248783 1.7934426
v 21.891897 0.69874752 1.7636836
v 22.263519 -0.66744238 1.697896
v 22.123869 -0.6772992 1.7086123
v 21.891897 -0.69874752 1.7636836
v 21.870001 -0.70248783 1.7934426
v 21.891893 -0.70340538 1.8231956
v 22.221304 -0.68442607 1.8857093
v 22.123732 -0.68952835 1.8782271
v 21.937019 -0.15785667 2.4826572
v 22.068029 -0.15384397 2.4786661
v 21.937019 0.15785667 2.4826572
v 22.068029 0.15384397 2.4786661
v 22.221304 0.68442607 1.8857093
v 22.123732 0.68952835 1.8782271
v 21.891893 0.70340538 1.8231956
v 22.839243 -0.64323777 1.883423
v 22.696068 -0.65314811 1.8892196
v 22.642183 -0.65694886 1.8914009
v 22.437819 -0.67166531 1.8936824
v 22.599262 -0.12620047 2.4569123
v 22.46809 -0.13448039 2.4629071
v 22.727335 -0.11734748 2.4511876
v 22.335201 0.14197136 2.4691305
v 22.46809 0.13448039 2.4629071
v 22.599262 0.12620047 2.4569123
v 22.696068 0.65314811 1.8892196
v 22.642183 0.65694886 1.8914009
v 22.437819 0.67166531 1.8936824
v 22.839243 0.64323777 1.883423
v 22.849323 -0.1082072 2.442256
v 22.963903 -0.098976873 2.4291682
v 23.278822 0.070881292 2.3874815
v 23.329773 0.065891162 2.3770905
v 23.535654 0.46778044 1.7552407
v 23.535654 -0.46778044 1.7552407
v 23.566856 0.4559831 1.7581843
v 23.566856 -0.4559831 1.7581843
v 23.660362 -0.4270488 1.8195481
v 23.666138 -0.42463863 1.8189687
v 23.667698 -0.029436905 2.2747629
v 23.673782 -0.028718892 2.2724366
v 23.711567 -0.024199506 2.2561052
v 23.740206 -0.020723155 2.2437425
v 23.740206 0.020723155 2.2437425
v 23.711567 0.024199506 2.2561052
v 23.863039 -0.005005802 2.1781437
v 23.840237 -0.0080146147 2.1913903
v 23.814318 0.011404365 2.2064493
v 23.840237 0.0080146147 2.1913903
v 23.910627 0.28547397 1.7934426
v 23.910627 -0.28547397 1.7934426
v 2.7549884 -0.060825296 -2.6712828
v 2.7683523 -0.054913152 -2.6734276
v 2.747874 -0.063943699 -2.6702943
v 2.7300169 -0.07228639 -2.6679282
v 2.3909619 0 -2.6487243
v 2.7300169 0.07228639 -2.6679282
v 2.747874 0.063943699 -2.6702943
v 3.0548718 0 -3.3064663
v 3.0547664 -0.016522918 -3.3052921
v 3.054805 -0.010468468 -3.3057225
v 3.0548329 0.0060868445 -3.3060338
v 3.054805 0.010468468 -3.3057225
v 3.0547664 0.016522918 -3.3052921
v 3.0545678 0.042607911 -3.3030806
v 3.0544498 0.048694756 -3.3017654
v 3.0543318 0.054781601 -3.3004503
v 3.0115416 0.18562882 -3.2544725
v 3.0200713 0.17252898 -3.2604444
v 3.0545678 -0.042607911 -3.3030806
v 3.0544498 -0.048694756 -3.3017654
v 3.0543318 -0.054781601 -3.3004503
v 3.0480862 -0.10431417 -3.2878196
v 3.0447578 -0.11610239 -3.2846661
v 3.0526197 -0.079608105 -3.2954144
v 3.0482545 -0.10371755 -3.2879791
v 2.9603438 -0.23567301 -3.2297802
v 2.9638731 -0.23295125 -3.2313046
v 2.9925604 -0.20714426 -3.2435803
v 3.0006161 -0.19838801 -3.2481635
v 2.8631768 0 -2.6963432
v 2.9089203 0.26757118 -3.2164712
v 2.9074228 0.26814932 -3.2165298
v 2.8853011 -0.27539766 -3.2188456
v 2.8943186 -0.27276051 -3.2175684
v 2.8058035 0.26437595 -3.2719204
v 2.7967677 0.25648445 -3.2832913
v 2.7604682 0.19371921 -3.3465862
v 2.7603338 0.19108605 -3.3480859
v 2.760401 0.19240263 -3.3473361
v 2.7596979 0.17976871 -3.3545482
v 2.7597284 0.18006723 -3.3543737
v 2.7602665 0.18976949 -3.3488357
v 2.7601466 0.18742393 -3.3501716
v 2.7600775 0.18607099 -3.3509421
v 2.7599971 0.1845032 -3.351835
v 2.7600646 0.18581977 -3.3510852
v 2.7598059 0.18096617 -3.3538525
v 2.7598271 0.18126692 -3.3536797
v 2.759939 0.18336511 -3.3524833
v 2.7598627 0.18187004 -3.3533349
v 2.7599299 0.18318662 -3.3525848
v 2.7596653 -0.17947079 -3.354723
v 2.7596302 -0.17917345 -3.354898
v 2.7596998 -0.1797871 -3.3545375
v 2.7596672 -0.17948723 -3.3547132
v 2.7604682 -0.19371921 -3.3465862
v 2.760401 -0.19240263 -3.3473361
v 2.7603338 -0.19108605 -3.3480859
v 2.7602665 -0.18976949 -3.3488357
v 2.7602158 -0.18877688 -3.349401
v 2.7601466 -0.18742393 -3.3501716
v 2.7600775 -0.18607099 -3.3509421
v 2.7600646 -0.18581977 -3.3510852
v 2.759939 -0.18336511 -3.3524833
v 2.759846 -0.18156822 -3.353507
v 2.7598627 -0.18187004 -3.3533349
v 2.7598698 -0.18201216 -3.3532538
v 2.6295722 -0.19371921 -3.3705709
v 2.6323986 -0.19371921 -3.3704557
v 2.6459937 -0.19371921 -3.3699007
v 2.6549935 -0.19371921 -3.3689349
v 2.6459937 0.19371921 -3.3699007
v 2.6549935 0.19371921 -3.3689349
v 2.6295722 0.19371921 -3.3705709
v 2.5812666 0.19371921 -3.3705029
v 2.5713849 0.19371921 -3.3704588
v 2.6101718 0.19371921 -3.3705473
v 2.6174223 0.19371921 -3.3705561
v 2.5331848 0.19371921 -3.3702598
v 2.4599319 0.17947079 -3.3773003
v 2.4599974 0.17917345 -3.3774662
v 2.4598684 0.17976871 -3.3771341
v 2.4576752 0.19371921 -3.3693628
v 2.4579859 0.19168927 -3.3704934
v 2.4581933 0.19033487 -3.3712478
v 2.4584007 0.18898048 -3.3720021
v 2.4584813 0.18845291 -3.3722961
v 2.458683 0.18713634 -3.3730295
v 2.4588153 0.18627168 -3.3735111
v 2.4590859 0.1845032 -3.374496
v 2.4592876 0.18318662 -3.3752294
v 2.4595363 0.18156822 -3.3761308
v 2.4597487 0.18036631 -3.3768008
v 2.4596922 0.18066595 -3.3766336
v 2.4595861 0.18126692 -3.3762987
v 2.334044 0.27947441 -3.297138
v 2.3218062 0.27792609 -3.2978776
v 2.4698224 -0.19371921 -3.3695412
v 2.4599319 -0.17947079 -3.3773003
v 2.4598684 -0.17976871 -3.3771341
v 2.4576752 -0.19371921 -3.3693628
v 2.4578767 -0.19240263 -3.370096
v 2.4581933 -0.19033487 -3.3712478
v 2.4579859 -0.19168927 -3.3704934
v 2.4584007 -0.18898048 -3.3720021
v 2.4584813 -0.18845291 -3.3722961
v 2.4586079 -0.18762608 -3.3727565
v 2.4801853 -0.19371921 -3.3696933
v 2.5331848 -0.19371921 -3.3702598
v 2.5124691 -0.19371921 -3.3700752
v 2.4361701 -0.23032929 -3.3446829
v 2.4244118 -0.24438171 -3.3337953
v 2.4091947 -0.2581031 -3.3219116
v 2.3976498 -0.26636758 -3.3132093
v 2.3744199 -0.27582404 -3.3028724
v 2.2981031 -0.27193183 -3.3022909
v 2.286747 -0.26757118 -3.3056998
v 2.2545512 -0.24907552 -3.3213258
v 2.2457473 -0.2420339 -3.3258269
v 2.18975 0.17050879 -3.3670919
v 2.1727934 -0.12698647 -3.3839312
v 2.1757481 -0.13575496 -3.3809319
v 2.1634948 0.048694756 -3.4025483
v 2.1636546 0.02471536 -3.4043274
v 2.1636569 0.024347378 -3.4043548
v 2.1637361 0.012473281 -3.4052358
v 2.1638176 -0.00023119984 -3.4061441
v 2.1637769 -0.0063522402 -3.40569
v 2.1637361 -0.012473281 -3.4052358
v 2.1636569 -0.024347378 -3.4043548
v 2.1636164 -0.030434223 -3.4039032
v 2.1757481 0.13575496 -3.3809319
v 2.1727934 0.12698647 -3.3839312
v 2.18435 0.15820871 -3.3732409
v 2.364918 -0.2783953 -3.299818
v 7.2122383 -2.3024359 -0.78283119
v 7.210001 -2.2874584 -0.78398925
v 7.2859864 -2.172323 -0.79295683
v 7.3621678 -2.1600158 -0.79287565
v 7.3068032 -2.1641433 -0.79330981
v 7.2626362 -2.3724091 -0.77737719
v 7.2338786 -2.3474901 -0.77932733
v 7.6767969 -2.2750583 -0.77421981
v 7.2859864 2.172323 -0.79295683
v 7.3068032 2.1641433 -0.79330981
v 7.2122383 2.3024359 -0.78283119
v 7.210001 2.2874584 -0.78398925
v 7.5321097 2.2038715 -0.78537571
v 7.5756202 2.2227073 -0.78229064
v 7.6641212 2.2678618 -0.77536273
v 7.6099997 2.2391663 -0.7797175
v 7.6767969 2.2750583 -0.77421981
v 7.6767969 2.5100248 -2.1067805
v 7.6545124 2.4966183 -2.1039476
v 7.6641726 2.5023367 -2.1049685
v 7.2122383 2.4843342 -2.1077368
v 7.2166038 2.4710665 -2.1104794
v 7.210001 2.5201538 -2.1036704
v 7.2095637 2.5096166 -2.1044664
v 7.210001 2.4990718 -2.1052191
v 7.2317739 2.5767643 -2.0994463
v 7.2276063 2.5697834 -2.0991423
v 7.5756202 2.5615153 -2.0938294
v 7.5959139 2.5516555 -2.0945303
v 7.6767969 -2.5100248 -2.1067805
v 7.6676855 -2.5044401 -2.1054754
v 7.6676855 -2.515012 -2.1046987
v 7.6641726 -2.5023367 -2.1049685
v 7.3100562 -2.3990076 -2.1266413
v 7.3283458 -2.397661 -2.1265938
v 7.2650232 -2.414983 -2.1220787
v 7.2793269 -2.4095795 -2.1235514
v 7.2122383 -2.5351217 -2.1024585
v 7.210001 -2.5201538 -2.1036704
v 7.2095637 -2.5096166 -2.1044664
v 7.2793269 -2.6122708 -2.1002221
v 7.3068032 -2.6231511 -2.1002319
v 7.3283458 -2.6246376 -2.0997221
v 7.3621678 -2.6270208 -2.0992033
v 7.4756894 -2.6023877 -2.0959613
v 7.4308367 -2.6155045 -2.0972998
v 7.5568247 -2.5697834 -2.0932436
v 7.5756202 -2.5615153 -2.0938294
v 8.190383 -2.6025388 -2.9388013
v 8.1904736 -2.5970247 -2.9391677
v 8.1902018 -2.6135666 -2.9380682
v 8.1902924 -2.6080527 -2.9384346
v 8.1905594 -2.5917585 -2.939518
v 8.19065 -2.5862274 -2.9398856
v 8.1906538 -2.5859969 -2.9399009
v 8.1907444 -2.580483 -2.9402676
v 8.1909142 -2.5694528 -2.9409568
v 8.1907396 -2.5587854 -2.9402478
v 8.190649 -2.5532715 -2.9398811
v 8.1682119 -2.4256661 -2.9188523
v 8.1682158 -2.4256752 -2.9188552
v 8.190115 -2.520658 -2.9377129
v 8.190197 -2.5257015 -2.9380484
v 8.1902876 -2.5312157 -2.9384148
v 8.1903782 -2.5367296 -2.9387815
v 8.1897993 -2.5143218 -2.9364338
v 8.1900749 -2.5198531 -2.9375505
v 8.164073 -2.714092 -2.9206164
v 8.1664343 -2.7087457 -2.9216087
v 8.1297426 -2.7646277 -2.9089372
v 8.1273928 -2.7672675 -2.9081643
v 8.1188917 -2.7767899 -2.9052708
v 8.0867071 -2.3244367 -2.8925879
v 8.0851068 -2.3231642 -2.8924129
v 7.9122272 -2.2841027 -2.9431808
v 7.8905387 -2.2848201 -2.9529829
v 7.846839 -2.8373888 -2.9837775
v 7.8538318 -2.8385699 -2.9801757
v 7.8256278 -2.8322856 -2.9958508
v 7.7626314 -2.8090045 -3.0309014
v 7.7801118 -2.8165724 -3.0212924
v 7.7621346 -2.3192005 -3.0247524
v 7.7515273 -2.3245966 -3.0310292
v 7.7399068 -2.2903218 -3.0130084
v 7.7415409 -2.3020065 -3.0213208
v 7.7414522 -2.3005133 -3.0202215
v 7.7413654 -2.2990572 -3.0191495
v 7.7399368 -2.2904956 -3.0131304
v 7.7404299 -2.2933464 -3.0151293
v 7.7409134 -2.2961454 -3.0170918
v 7.7406621 -2.2946897 -3.0160711
v 7.7411652 -2.2976015 -3.0181129
v 7.741169 -2.2976224 -3.0181277
v 7.7408633 -2.3136971 -3.027998
v 7.741529 -2.3086522 -3.0250111
v 7.7303314 -2.7932622 -3.0490649
v 7.7268176 -2.7900586 -3.0518355
v 7.7413611 -2.814508 -3.0341599
v 7.7401381 -2.8096807 -3.0371838
v 7.73839 -2.8051069 -3.0402153
v 7.7361507 -2.8008223 -3.0432253
v 7.7415867 -2.8365166 -3.0218871
v 7.7416496 -2.835083 -3.0226643
v 7.7417126 -2.8336499 -3.0234418
v 7.7417183 -2.8335156 -3.0235145
v 7.7415218 -2.8378832 -3.0210831
v 7.5959139 -2.2903218 -3.0417316
v 7.6053524 -2.2903218 -3.0413196
v 7.49508 -2.8378832 -3.047749
v 7.5177522 -2.8378832 -3.047857
v 7.4843359 -2.8378832 -3.0476978
v 7.4772015 -2.8378832 -3.0476298
v 7.4574461 -2.8378832 -3.0474415
v 7.3925776 -2.8378832 -3.0465875
v 7.4055576 -2.8378832 -3.0467913
v 7.4394655 -2.8378832 -3.0472703
v 7.4323182 -2.8378832 -3.0472021
v 7.2389865 -2.8378832 -3.0418096
v 7.2685037 -2.8378832 -3.0431075
v 7.426518 -2.2903218 -3.0408175
v 7.4074244 -2.2903218 -3.0405178
v 7.3923645 -2.2903218 -3.0402813
v 7.4851947 -2.2903218 -3.041399
v 7.4404993 -2.2903218 -3.0409772
v 7.4562397 -2.2903218 -3.0411272
v 7.5183005 -2.2903218 -3.0415568
v 7.225235 -2.2903218 -3.0343854
v 7.1981125 -2.2903218 -3.0326879
v 7.1294312 -2.2961454 -3.0315053
v 7.1293664 -2.2976015 -3.0323071
v 7.1293197 -2.2986491 -3.0328841
v 7.1410089 -2.8378832 -3.0356214
v 7.1291199 -2.8364275 -3.035357
v 7.129055 -2.8349714 -3.036159
v 7.1289902 -2.8335156 -3.0369606
v 7.1288857 -2.8311677 -3.0382538
v 7.1289496 -2.8326008 -3.0374646
v 7.1287961 -2.8291478 -3.0393662
v 7.1286945 -2.8268688 -3.0406215
v 7.1287584 -2.8283017 -3.0398324
v 7.1286306 -2.8254356 -3.0414107
v 6.9024382 -2.8418481 -2.9951792
v 6.8904586 -2.8405347 -2.9927528
v 6.868052 -2.8372254 -2.9888582
v 6.8874726 -2.8402073 -2.9921482
v 6.8014317 -2.8200915 -2.9780517
v 6.8300691 -2.8288453 -2.9824257
v 6.8337836 -2.8297517 -2.9831657
v 6.793334 -2.8173623 -2.9765356
v 6.7972674 -2.8186879 -2.9772718
v 6.7564034 -2.7945504 -2.9746611
v 6.7703781 -2.8062744 -2.9746222
v 6.7121091 -2.7403948 -2.9819002
v 6.7131524 -2.7420032 -2.9818037
v 6.7232838 -2.7573643 -2.9788122
v 6.7297711 -2.7654057 -2.9777853
v 6.7422051 -2.7801049 -2.9761062
v 6.688642 -2.6905324 -2.9876516
v 6.6978402 -2.7136314 -2.9840412
v 6.6868815 -2.6844225 -2.988987
v 6.6790729 -2.6499875 -2.9920223
v 6.684866 -2.67713 -2.989526
v 6.6774235 -2.6402845 -2.9931746
v 6.6765599 -2.6275358 -2.9954922
v 6.6757922 -2.6138833 -2.996032
v 6.6756802 -2.5941017 -2.9974179
v 6.6757116 -2.5996156 -2.9970317
v 6.6757607 -2.6083519 -2.9964197
v 6.6756043 -2.5806961 -2.9983571
v 6.6756358 -2.5862274 -2.9979696
v 6.6756506 -2.5506806 -2.9977832
v 6.6756196 -2.5561948 -2.9981697
v 6.6758566 -2.5143218 -2.9952362
v 6.6758251 -2.5198531 -2.9956236
v 6.6757755 -2.5286248 -2.9962382
v 6.6757445 -2.5341387 -2.9966245
v 6.6756687 -2.547509 -2.997561
v 6.6757131 -2.5396528 -2.9970107
v 6.6757312 -2.5364466 -2.9967861
v 23.899271 0 2.1538494
v 8.190835 2.5749691 -2.9406343
v 8.1907444 2.580483 -2.9402676
v 8.1907406 2.5806961 -2.9402535
v 8.19065 2.5862274 -2.9398856
v 8.190383 2.6025388 -2.9388013
v 8.1902876 2.6083519 -2.9384148
v 8.1904907 2.5435874 -2.9392374
v 8.1905584 2.5477576 -2.9395146
v 8.1906452 2.5530403 -2.9398658
v 8.1907358 2.5585713 -2.9402335
v 8.1907396 2.5587854 -2.9402478
v 8.1086702 2.3435133 -2.8958941
v 8.0867071 2.3244367 -2.8925879
v 8.117012 2.3514152 -2.8976455
v 8.1273928 2.3630431 -2.9011786
v 8.1297426 2.7646277 -2.9089372
v 8.1273928 2.7672675 -2.9081643
v 8.0851068 2.3231642 -2.8924129
v 8.0422287 2.3047225 -2.8976552
v 8.0240355 2.2993598 -2.9020677
v 8.078042 2.3177025 -2.8908648
v 8.0602264 2.3108428 -2.8938737
v 7.9282928 2.2844729 -2.9365587
v 7.9312177 2.2845414 -2.9351602
v 8.0006723 2.8349452 -2.919095
v 8.0063276 2.8337872 -2.9173641
v 7.8538318 2.2893095 -2.971355
v 7.8449097 2.2908163 -2.9759505
v 7.8256278 2.8322856 -2.9958508
v 7.846839 2.8373888 -2.9837775
v 7.7420268 2.8195529 -3.031173
v 7.7421012 2.82478 -3.0282524
v 7.7419639 2.8279161 -3.0265515
v 7.7419009 2.8293498 -3.025774
v 7.7418461 2.8306038 -3.0250938
v 7.7417822 2.8320596 -3.0243042
v 7.7417126 2.8336499 -3.0234418
v 7.7416496 2.835083 -3.0226643
v 7.7415218 2.8378832 -3.0210831
v 7.7268176 2.7900586 -3.0518355
v 7.7303314 2.7932622 -3.0490649
v 7.7401381 2.8096807 -3.0371838
v 7.7413611 2.814508 -3.0341599
v 7.7626314 2.8090045 -3.0309014
v 7.7801118 2.8165724 -3.0212924
v 7.7263198 2.3381467 -3.0456736
v 7.7224479 2.3409188 -3.0483062
v 7.741529 2.3086522 -3.0250111
v 7.7408633 2.3136971 -3.027998
v 7.741539 2.3019691 -3.0212934
v 7.7399068 2.2903218 -3.0130084
v 7.7401586 2.2917778 -3.0140295
v 7.7404103 2.2932336 -3.0150502
v 7.7404299 2.2933464 -3.0151293
v 7.7414522 2.3005133 -3.0202215
v 7.7414498 2.3004735 -3.0201921
v 7.7406621 2.2946897 -3.0160711
v 7.7409134 2.2961454 -3.0170918
v 7.7411652 2.2976015 -3.0181129
v 7.741169 2.2976224 -3.0181277
v 7.7205434 2.2903218 -3.019006
v 7.7069941 2.2903218 -3.0227406
v 7.6295004 2.2903218 -3.0393262
v 7.6390934 2.2903218 -3.0381203
v 7.5959139 2.2903218 -3.0417316
v 7.6053524 2.2903218 -3.0413196
v 7.4843359 2.2903218 -3.0413949
v 7.4828672 2.8378832 -3.0476837
v 7.4652472 2.8378832 -3.0475159
v 7.5366464 2.8378832 -3.0479472
v 7.5012927 2.8378832 -3.0477786
v 7.3800087 2.2903218 -3.0400875
v 7.3967543 2.2903218 -3.0403502
v 7.4151535 2.2903218 -3.0406389
v 7.4074244 2.2903218 -3.0405178
v 7.3788443 2.2903218 -3.0400691
v 7.3470931 2.2903218 -3.039326
v 7.2784963 2.2903218 -3.0370452
v 7.2324462 2.2903218 -3.0348272
v 7.2389865 2.8378832 -3.0418096
v 7.2685037 2.8378832 -3.0431075
v 7.1830373 2.2903218 -3.0316999
v 7.1410089 2.2903218 -3.0283637
v 7.225235 2.2903218 -3.0343854
v 7.1981125 2.2903218 -3.0326879
v 7.1294556 2.2955942 -3.0312018
v 7.1295104 2.2946897 -3.0305245
v 7.1295986 2.2932336 -3.0294342
v 7.1297746 2.2903218 -3.0272541
v 7.1296868 2.2917778 -3.0283444
v 7.1291718 2.3019691 -3.0347126
v 7.1292367 2.3005133 -3.033911
v 7.1292558 2.3000822 -3.0336735
v 7.1293197 2.2986491 -3.0328841
v 7.1293836 2.2972162 -3.032095
v 7.1410089 2.3365493 -3.0549631
v 7.1485691 2.3409188 -3.057935
v 7.1291847 2.8378832 -3.0345554
v 7.1291199 2.8364275 -3.035357
v 7.129055 2.8349714 -3.036159
v 7.1289902 2.8335156 -3.0369606
v 7.1289258 2.8320596 -3.0377626
v 7.1288857 2.8311677 -3.0382538
v 7.1288223 2.8297348 -3.0390429
v 7.1287584 2.8283017 -3.0398324
v 7.1286664 2.826236 -3.0409698
v 7.1286016 2.82478 -3.0417717
v 7.1286769 2.8195529 -3.0446782
v 7.1293526 2.814508 -3.0475378
v 7.1305947 2.8096807 -3.0503278
v 6.9999433 2.2877076 -3.0084214
v 7.0155048 2.2901592 -3.012995
v 6.9024382 2.2864313 -2.9866605
v 6.8881497 2.287998 -2.9837668
v 6.790844 2.3120565 -2.967777
v 6.7761497 2.3177025 -2.9655492
v 6.7703781 2.3224742 -2.9666018
v 6.7703781 2.8062744 -2.9746222
v 6.7564034 2.7945504 -2.9746611
v 6.7131524 2.7420032 -2.9818037
v 6.7121091 2.7403948 -2.9819002
v 6.7448764 2.3458819 -2.9698086
v 6.7406082 2.3502245 -2.970243
v 6.684866 2.4519417 -2.9866254
v 6.684866 2.67713 -2.989526
v 6.6868815 2.6844225 -2.988987
v 6.6777644 2.6422901 -2.9929364
v 6.6817746 2.6658821 -2.9901347
v 6.6755428 2.5697834 -2.9991217
v 6.6756358 2.5862274 -2.9979696
v 6.6756043 2.5806961 -2.9983571
v 6.6757922 2.6138833 -2.996032
v 6.6757607 2.6083519 -2.9964197
v 6.6757298 2.6028209 -2.9968071
v 6.675561 2.5665114 -2.9988923
v 6.6755881 2.5617087 -2.9985559
v 6.6756063 2.5585713 -2.9983361
v 6.6756372 2.5530403 -2.9979486
v 6.6759825 2.5120823 -2.9951475
v 6.6770773 2.4959202 -2.9922094
v 6.6756687 2.547509 -2.997561
v 6.6757131 2.5396528 -2.9970107
v 6.6757445 2.5341387 -2.9966245
v 6.675838 2.5175967 -2.9954655
v 6.675807 2.5231109 -2.9958518
v 6.6757627 2.5309155 -2.9963987
v 6.6757941 2.5253842 -2.996011
v 6.6838078 2.4556367 -2.9873536
v 6.6819701 2.462323 -2.9877152
v 6.677619 2.4879205 -2.9907551
v 7.4737506 2.2903218 -3.0412941
v 7.4452085 2.2903218 -3.0410221
v 7.4562397 2.2903218 -3.0411272
v 7.4138279 2.8378832 -3.046921
v 7.4055576 2.8378832 -3.0467913
v 7.129703 -2.2915072 -3.0281417
