v 3.0459411 0.0045800693 -1.1477741
v 3.0458221 1.0175922e-16 -1.1477686
l 1 2
v 3.0458221 1.0175922e-16 -1.1477686
v 3.0458221 1.0175922e-16 -1.1477686
l 3 4
v 3.5314224 1.0036514e-16 -1.1705358
v 3.5262115 0.0038859523 -1.1703254
l 5 6
v 3.5262115 0.0038859523 -1.1703254
v 3.5314224 1.0036514e-16 -1.1705358
l 7 8
v 3.5314224 1.0036514e-16 -1.1705358
v 3.5314224 1.0036514e-16 -1.1705358
l 9 10
v 3.5262115 -0.0038859523 -1.1703254
v 3.5314224 1.0036514e-16 -1.1705358
l 11 12
v 20.683043 9.3873646e-19 2.5413785
v 20.611128 0 2.5441496
l 13 14
v 20.687248 -0.017620308 2.5401871
v 20.683043 9.3873646e-19 2.5413785
l 15 16
v 20.683043 9.3873646e-19 2.5413785
v 20.683043 9.3873646e-19 2.5413785
l 17 18
v 2.9799409 9.2513044e-17 -1.2987702
v 3.0458221 1.0175922e-16 -1.1477686
l 19 20
v 2.3909619 0 -2.6487243
v 2.4855571 2.3128261e-17 -2.4319098
l 21 22
v 2.3909619 0 -2.6487243
v 2.3909619 0 -2.6487243
l 23 24
v 2.3744199 0 -2.649169
v 2.3909619 0 -2.6487243
l 25 26
v 2.3909619 0 -2.6487243
v 2.3744199 0 -2.649169
l 27 28
