v 21.266705 0.15043771 2.505631
v 2.6174223 -0.19371921 -3.3705561
v 2.1636138 0.030836402 -3.4038734
v 9.4033051 -13.76741 0.45449236
v 9.4033051 13.76741 0.45449236
v 7.6545124 2.2624931 -0.77615756
v 7.6358209 2.252414 -0.77767485
v 24.585905 1.4833871e-16 4.3897681
v 7.5001726 -2.8378832 -3.0477734
v 7.4165277 -2.2903218 -3.0406606
v 7.4503365 -2.2903218 -3.0410709
v 7.4914546 -2.2903218 -3.0414288
v 7.1291847 -2.8378832 -3.0345554
v 6.7956357 -2.8181381 -2.9769664
v 6.6757426 2.6051297 -2.9966452
v 23.52272 -4.6672249 1.7934426
v 23.52272 4.6672249 1.7934426
v 21.88806 -4.6672249 1.7689005
v 21.870001 -4.6672249 1.7934426
v 21.88806 -4.6672249 1.8179848
v 21.870001 4.6672249 1.7934426
v 21.88806 4.6672249 1.8179848
v 21.88806 4.6672249 1.7689005
